<?xml version="1.0" encoding="utf-8" ?><svg xmlns="http://www.w3.org/2000/svg" xmlns:xlink="http://www.w3.org/1999/xlink" width="1150" height="642" viewBox="0 0 1150 642"><path fill="#1B3866" d="M698.475 73.9095C699.507 73.7928 700.674 73.741 701.719 73.68C753.421 70.5393 804.243 88.1358 842.941 122.576C882.128 157.261 905.681 206.284 908.275 258.56C911.011 310.409 892.928 361.204 858.045 399.654C823.505 437.809 775.277 460.745 723.889 463.456C671.881 466.299 620.896 448.218 582.293 413.241C548.638 382.932 526.559 341.865 519.835 297.069C517.874 283.936 518.077 275.218 517.361 262.566C516 240.071 505.707 219.053 488.772 204.19C471.86 189.156 449.623 181.54 427.048 183.048C404.269 184.477 383.026 195.025 368.118 212.311C353.099 229.675 345.707 252.359 347.608 275.24C349.523 297.611 360.175 318.325 377.255 332.892C394.394 347.519 416.639 354.738 439.098 352.964C463.503 350.974 483.281 339.798 498.98 321.312L499.095 379.13C484.913 387.237 476.167 390.53 460.317 394.557C435.316 399.509 410.688 398.234 386.727 389.132C354.432 376.959 328.353 352.361 314.31 320.827C300.359 289.388 299.421 253.703 311.702 221.575C324.045 189.501 348.627 163.65 380.035 149.715C411.662 135.798 447.523 135.035 479.712 147.596C522.995 164.484 553.903 203.287 560.693 249.259C562.159 259.583 561.956 268.776 562.591 278.974C563.671 295.976 567.729 312.655 574.58 328.252C590.706 365.436 621.051 394.608 658.834 409.252C696.077 423.606 737.485 422.63 774.011 406.538C810.988 390.237 839.924 359.836 854.386 322.092C868.634 284.637 867.456 243.059 851.109 206.472C825.948 150.699 769.578 115.236 708.613 117.31C685.357 118.101 667.507 123.138 646.592 132.644C646.684 116.825 646.663 101.006 646.53 85.1877C660.284 79.2181 683.673 75.0844 698.475 73.9095Z"/><path fill="#1B3866" d="M419.413 73.8159C420.109 73.6977 420.435 73.6992 421.113 73.6602C474.283 70.6049 525.629 88.7916 565.022 125.03C598.197 155.505 619.754 196.564 626.006 241.182C627.638 252.68 627.525 260.294 628.022 271.652C628.802 294.264 638.649 315.61 655.343 330.876C672.123 346.161 694.27 354.177 716.942 353.172C739.805 352.029 761.267 341.812 776.573 324.786C791.599 308.08 799.37 286.086 798.176 263.646C797.02 240.915 786.788 219.6 769.776 204.485C752.911 189.371 730.696 181.644 708.095 183.029C682.165 184.491 663.579 195.801 646.699 214.706C646.473 195.587 646.622 176.201 646.611 157.061C660.078 149.332 671.994 144.388 687.349 141.272C721.187 134.408 756.364 141.326 785.085 160.493C813.555 179.489 833.317 209.017 840.027 242.585C846.916 276.674 839.772 312.102 820.212 340.855C801.119 369.004 771.683 388.471 738.311 395.019C704.374 401.739 669.158 394.597 640.517 375.186C610.951 355.206 592.496 325.739 585.803 290.894C583.68 281.733 583.846 267.919 583.338 258.35C582.385 240.423 578.08 223.75 570.953 207.342C554.769 170.76 524.784 142.061 487.534 127.502C450.202 112.985 408.642 113.846 371.943 129.898C335.115 146.103 306.234 176.283 291.659 213.795C277.257 251.115 278.217 292.622 294.329 329.236C310.66 366.11 340.995 394.965 378.633 409.425C419.598 425.168 459.603 421.671 499.063 404.036C498.502 418.928 498.817 437.206 499.056 452.184C482.605 458.141 465.42 461.827 447.974 463.141C396.125 467.275 344.773 450.52 305.334 416.6C265.758 382.623 241.457 334.189 237.874 282.143C234.225 230.437 251.307 179.406 285.348 140.323C319.365 101.137 367.639 77.1894 419.413 73.8159Z"/><path fill="#1B3866" d="M810.267 509.502L840.059 509.487L840.107 560.22C840.115 573.38 841.02 591.865 839.466 604.652C835.622 636.265 795.132 647.957 768.658 637.294C757.269 632.815 748.148 623.958 743.335 612.703C737.741 599.424 738.609 586.043 743.993 572.915C755.281 550.316 778.526 543.405 801.975 548.758L801.982 576.323C798.875 575.083 795.6 574.318 792.266 574.053C767.658 572.095 760.863 603.992 782.187 612.685C794.411 616.805 807.47 610.875 809.396 597.543C810.972 586.637 810.337 576.047 810.331 565.238L810.267 509.502Z"/><path fill="#1B3866" d="M440.957 509.489L470.917 509.494C470.26 520.584 469.696 593.353 472.015 599.78C473.884 604.96 477.031 609.812 482.166 612.192C487.219 614.533 494.024 614.475 499.198 612.541C503.872 610.826 507.655 607.295 509.689 602.749C511.942 597.77 512.174 591.703 510.205 586.594C508.339 581.619 504.512 577.628 499.619 575.556C492.979 572.768 485.491 573.796 479.016 576.517L478.969 548.762C479.773 548.577 480.579 548.398 481.385 548.224C497.51 544.755 510.027 547.677 523.656 556.477C536.308 567.301 540.703 576.7 541.436 593.213C543.489 639.482 482.119 655.962 452.741 626.76C447.641 621.728 444.041 615.376 442.343 608.414C440.272 599.729 440.942 578.47 440.953 568.269L440.957 509.489Z"/><path fill="#1B3866" d="M587.756 547.239C604.517 545.969 621.869 548.75 634.466 560.953C648.093 574.153 646.213 591.815 646.189 609.131L646.128 639.036C636.167 638.914 626.205 638.932 616.245 639.092C616.304 623.964 616.712 608.521 616.039 593.434C615.098 572.327 590.579 567.237 578.345 583.285C572.971 593.184 574.655 605.628 585.176 611.277C593.083 615.523 601.019 613.883 609.128 611.432C609.471 619.028 609.23 628.377 609.225 636.104C605.526 638.364 601.428 639.892 597.152 640.606C586.057 642.513 574.657 639.964 565.431 633.511C535.956 612.982 539.928 564.927 573.516 551.094C578.602 548.999 582.333 548.144 587.756 547.239Z"/><path fill="#1B3866" d="M1087.89 547.248C1103.19 544.983 1123.59 549.94 1134.66 561.159C1139.43 566.011 1142.83 572.046 1144.5 578.644C1147.06 588.474 1146.08 626.884 1146.07 639.045C1136.75 638.786 1125.54 638.887 1116.29 639.1C1116.11 623.824 1117.5 605.457 1115.63 590.585C1113.16 570.934 1088.29 568.174 1077.45 584.711C1075.38 589.436 1074.76 595.124 1076.18 600.119C1077.57 605.01 1080.91 609.111 1085.42 611.457C1093.08 615.502 1101.25 613.896 1109.03 611.398C1109.48 618.523 1109.22 628.67 1109.24 636.02C1105.17 638.56 1101.41 639.93 1096.63 640.698C1085.44 642.482 1074.01 639.757 1064.83 633.121C1043.84 618.066 1039.29 587.112 1054.42 566.129C1062.64 554.721 1074.26 549.406 1087.89 547.248Z"/><path fill="#1B3866" d="M583.696 1.05895C597.918 0.684288 613.545 0.979021 627.871 0.974566L627.813 176.092C614.706 150.527 604.05 135.31 583.917 114.651C583.793 77.03 583.376 38.6449 583.696 1.05895Z"/><path fill="#1B3866" d="M886.933 547.224C909.81 543.727 926.138 556.817 936.917 575.559C922.169 585.7 906.563 596.109 892.128 606.58C888.701 600.673 884.439 594.177 880.754 588.357L905.07 572.419C893.855 567.208 883.146 568.851 877.66 580.859C874.614 587.363 874.314 594.821 876.827 601.55C881.56 613.867 891.777 617.62 903.755 613.06C912.686 608.111 916.374 603.899 921.174 595.012L942.558 605.922C940.823 610.014 938.679 613.921 936.16 617.584C920.602 640.125 890.215 649.092 866.837 632.853C856.41 625.688 849.267 614.664 846.986 602.218C844.821 589.7 847.762 576.836 855.149 566.502C862.925 555.583 873.897 549.446 886.933 547.224Z"/><path fill="#1B3866" d="M269.256 547.211C293.67 545.082 307.344 555.263 319.424 575.585C304.632 585.346 289.3 596.231 274.685 606.387C271.091 601.373 266.56 593.823 263.132 588.469L287.445 572.401C248.182 555.447 247.84 627.006 286.277 613.049C295.5 608.002 298.587 603.825 303.649 595.132C310.438 598.115 318.438 602.535 325.034 606.045C323.808 608.649 322.464 611.249 321.037 613.748C306.664 638.921 274.112 649.959 249.349 632.912C238.892 625.737 231.726 614.688 229.438 602.212C227.269 589.861 230.12 577.155 237.359 566.917C245.182 555.631 255.96 549.597 269.256 547.211Z"/><path fill="#1B3866" d="M687.611 547.206C699.786 545.922 712.407 547.916 721.468 556.863C734.931 570.156 732.894 589.32 732.884 606.591L732.854 639.005C723.285 638.901 713.715 638.937 704.147 639.113L704.249 605.201C704.266 596.375 705.919 583.454 699.962 576.806C698.264 575.784 696.332 575.213 694.35 575.147C680.977 574.834 683.984 596.463 684.009 605.679L684.031 639.05C674.467 638.906 664.901 638.928 655.337 639.116L655.274 604.151C655.24 577.889 654.786 553.089 687.611 547.206Z"/><path fill="#1B3866" d="M229.506 549.041L230.84 549.137C231.538 551.418 209.818 623.567 206.665 629.59C204.033 634.617 200.551 638.617 194.956 640.268C189.535 641.868 182.882 641.456 177.931 638.614C174.11 636.42 171.387 633.048 169.385 629.174C164.321 619.371 158.142 591.227 154.819 578.93C152.217 568.986 149.518 559.067 146.724 549.175C156.536 548.946 166.88 549.064 176.71 549.131C181.253 566.913 185.287 590.315 189.347 608.772C192.351 589.389 197.431 568.7 200.863 549.111L229.506 549.041Z"/><path fill="#1B3866" d="M381.22 549.048L383.777 549.112C384.346 552.188 384.082 569.184 384.073 573.315C378.001 573.232 358.174 571.243 354.985 576.65C355.647 582.239 376.982 588.506 383.051 595.019C392.095 604.724 391.058 621.991 382.351 630.628C370.809 642.078 344.869 639.018 329.474 638.998C327.988 639.027 326.641 638.97 325.163 638.912L325.149 613.57C331.777 613.627 338.439 613.733 345.064 613.704C349.013 613.687 357.289 614.51 358.853 610.183C356.73 601.056 325.155 601.765 326.228 575.735C327.539 543.954 359.053 549.031 381.22 549.048Z"/><path fill="#1B3866" d="M113 509.484L142.971 509.495C142.14 522.1 142.75 541.975 142.748 554.992L142.846 638.898C137.302 639.9 119.852 638.979 113.024 639.095L113 509.484Z"/><path fill="#1B3866" d="M518.169 0.989542L562.055 0.949784L562.053 95.823C547.183 85.3246 535.263 77.6923 518.211 70.517C517.908 47.4785 518.143 24.0557 518.169 0.989542Z"/><path fill="#1B3866" d="M1014.12 549.025C1014.78 549.011 1015.85 549.107 1016.55 549.146C1018.46 551.214 1017.51 560.683 1017.43 563.97C1023.68 550.364 1029.52 549.483 1043.79 549.013C1043.66 558 1043.74 567.148 1043.74 576.148C1030.02 577.054 1020.97 577.996 1021.24 594.596C1021.4 603.978 1021.4 613.782 1021.4 623.184L1021.38 639.059C1011.43 638.917 1001.47 638.931 991.523 639.098L991.515 549.16L1014.12 549.025Z"/><path fill="#1B3866" d="M518.186 360.348C518.939 361.045 532.191 385.241 534.613 388.939C539.552 396.342 544.964 403.419 550.813 410.126C553.947 413.683 559.137 418.871 561.791 422.466L562.076 422.856L562.067 463.92C550.958 463.139 529.744 463.791 518.146 463.878L518.186 360.348Z"/><path fill="#1B3866" d="M950.195 549.038C959.721 548.759 970.111 548.932 979.705 548.903L979.643 615.892C979.642 619.621 980.082 636.589 979.399 638.763L978.274 638.95C968.786 638.897 959.297 638.939 949.81 639.077C949.809 629.849 948.79 553.076 950.195 549.038Z"/><path fill="#1B3866" d="M962.557 507.382C971.787 506.184 980.258 512.647 981.542 521.867C982.827 531.088 976.445 539.622 967.24 540.993C957.911 542.383 949.24 535.895 947.939 526.551C946.637 517.208 953.204 508.596 962.557 507.382Z"/><path fill="#1B3866" d="M583.934 441.449C590.697 446.389 596.959 450.537 604.089 454.885C607.432 456.924 617.154 461.868 619.572 463.947C609.828 463.233 593.843 463.797 583.647 463.844C583.665 456.378 583.761 448.912 583.934 441.449Z"/><path fill="#1B3866" d="M0 587.743C3.34975 573.262 8.27492 562.666 21.3764 554.455C47.2636 538.232 94.3182 547.869 99.5399 582.087C100.786 590.224 100.516 598.783 100.497 607.004L100.398 639.057C90.4627 638.916 80.5259 638.923 70.5909 639.078L70.6787 609.291C70.6935 599.93 71.8158 585.984 64.2789 578.959C52.0886 567.596 28.5626 576.402 29.763 594.4C31.0475 613.658 48.0331 617.028 63.493 611.388L63.5107 636.097C53.7672 641.501 43.1911 642.702 32.4913 639.592C21.0592 636.194 11.4376 628.406 5.7316 617.931C2.42353 611.812 1.49784 607.508 0 600.821L0 587.743Z"/></svg>