<?xml version="1.0" encoding="UTF-8"?>
<svg id="Layer_2" data-name="Layer 2" xmlns="http://www.w3.org/2000/svg" viewBox="0 0 557.5 185.03">
  <defs>
    <style>
      .cls-1 {
        fill: #fff;
      }

      .cls-2 {
        fill: #165480;
      }

      .cls-3 {
        fill: #2472ba;
      }
    </style>
  </defs>
  <g id="Layer_1-2" data-name="Layer 1">
    <g>
      <rect class="cls-2" x="0" y="8" width="557.5" height="177.03" rx="88.51" ry="88.51"/>
      <rect class="cls-3" x="0" y="0" width="557.5" height="177.03" rx="88.51" ry="88.51"/>
      <g>
        <path class="cls-1" d="M160,52v38.29c0,6.02-1.22,11.24-3.66,15.67-2.44,4.43-5.91,7.85-10.4,10.26-4.5,2.41-9.72,3.61-15.67,3.61-9.25,0-16.45-2.56-21.61-7.7-5.16-5.13-7.77-12.38-7.84-21.75h15.2c.06,5,1.33,8.85,3.8,11.54,2.47,2.69,5.95,4.04,10.45,4.04s7.9-1.38,10.4-4.13c2.5-2.76,3.75-6.67,3.75-11.73v-24.6h-19.38v-13.49h34.96Z"/>
        <path class="cls-1" d="M186.56,115.79c-5.42-2.88-9.59-6.95-12.54-12.21-2.94-5.26-4.42-11.37-4.42-18.33s1.47-13.08,4.42-18.33c2.95-5.26,7.12-9.32,12.54-12.21,5.42-2.88,11.7-4.32,18.86-4.32s13.44,1.44,18.86,4.32c5.42,2.88,9.6,6.95,12.54,12.21,2.95,5.26,4.42,11.37,4.42,18.33s-1.47,13.08-4.42,18.33c-2.94,5.26-7.12,9.33-12.54,12.21-5.41,2.88-11.7,4.32-18.86,4.32s-13.44-1.44-18.86-4.32ZM216.01,103.63c3.07-1.74,5.45-4.19,7.12-7.36,1.68-3.17,2.52-6.84,2.52-11.02s-.84-7.85-2.52-11.02c-1.68-3.17-4.05-5.62-7.12-7.36-3.07-1.74-6.6-2.61-10.59-2.61s-7.5.87-10.54,2.61c-3.04,1.74-5.4,4.2-7.08,7.36-1.68,3.17-2.52,6.84-2.52,11.02s.84,7.85,2.52,11.02c1.68,3.17,4.04,5.62,7.08,7.36,3.04,1.74,6.56,2.61,10.54,2.61s7.52-.87,10.59-2.61Z"/>
        <path class="cls-1" d="M311.72,79.17v29.64c-3.36,3.61-7.49,6.38-12.4,8.31-4.91,1.93-10.31,2.9-16.2,2.9-7.03,0-13.19-1.42-18.48-4.27-5.29-2.85-9.37-6.9-12.25-12.16-2.88-5.26-4.32-11.37-4.32-18.33s1.52-12.81,4.56-18.1c3.04-5.29,7.3-9.4,12.78-12.35,5.48-2.95,11.76-4.42,18.86-4.42,5.13,0,9.77.89,13.92,2.66,4.15,1.77,7.96,4.46,11.45,8.08l-9.4,9.31c-2.09-2.09-4.55-3.71-7.36-4.85-2.82-1.14-5.72-1.71-8.69-1.71-6.4,0-11.45,1.92-15.15,5.75-3.71,3.83-5.56,9.04-5.56,15.63,0,4.24.82,7.98,2.47,11.21,1.65,3.23,3.99,5.73,7.03,7.5,3.04,1.77,6.56,2.66,10.54,2.66,6.27,0,11.27-1.62,15.01-4.85v-10.16h-18.05v-12.45h31.25Z"/>
        <path class="cls-1" d="M373.66,118.5l-4.94-11.97h-32.77l-4.94,11.97h-16.62l29.83-66.5h16.62l29.64,66.5h-16.81ZM352.47,66.91l-10.93,26.22h21.66l-10.73-26.22Z"/>
        <path class="cls-1" d="M421.63,96.55h-9.03v21.94h-15.58V52h32.4c4.81,0,9.02.94,12.63,2.8,3.61,1.87,6.4,4.51,8.36,7.93,1.96,3.42,2.95,7.35,2.95,11.78,0,5.07-1.32,9.4-3.94,13.01-2.63,3.61-6.35,6.18-11.16,7.7l18.81,23.27h-18.52l-16.91-21.94ZM435.26,67.77c-1.81-1.65-4.35-2.47-7.65-2.47h-15.1v18.72h15.1c3.36,0,5.92-.81,7.69-2.42,1.77-1.61,2.66-3.91,2.66-6.89s-.9-5.29-2.71-6.94Z"/>
      </g>
    </g>
  </g>
</svg>