<?xml version="1.0" encoding="UTF-8"?>
<svg id="Layer_2" data-name="Layer 2" xmlns="http://www.w3.org/2000/svg" viewBox="0 0 489.41 162.43">
  <defs>
    <style>
      .cls-1 {
        fill: #fff;
      }

      .cls-2 {
        fill: #124b6d;
      }

      .cls-3 {
        fill: #2472ba;
      }
    </style>
  </defs>
  <g id="Layer_1-2" data-name="Layer 1">
    <g>
      <rect class="cls-3" x="0" y="0" width="489.41" height="155.4" rx="77.7" ry="77.7"/>
      <rect class="cls-2" x="0" y="7.02" width="489.41" height="155.4" rx="77.7" ry="77.7"/>
      <g>
        <path class="cls-1" d="M140.46,52.67v33.61c0,5.28-1.07,9.87-3.21,13.76-2.14,3.89-5.18,6.89-9.13,9.01-3.95,2.11-8.54,3.17-13.76,3.17-8.12,0-14.44-2.25-18.97-6.75-4.53-4.5-6.83-10.87-6.88-19.1h13.34c.05,4.39,1.17,7.77,3.34,10.13,2.17,2.36,5.22,3.54,9.17,3.54s6.94-1.21,9.13-3.63,3.29-5.85,3.29-10.3v-21.6h-17.01v-11.84h30.69Z"/>
        <path class="cls-1" d="M163.77,108.67c-4.75-2.53-8.42-6.1-11.01-10.72-2.58-4.61-3.88-9.98-3.88-16.1s1.29-11.48,3.88-16.1c2.59-4.61,6.25-8.19,11.01-10.72,4.75-2.53,10.27-3.79,16.55-3.79s11.8,1.27,16.55,3.79c4.75,2.53,8.42,6.1,11.01,10.72,2.59,4.62,3.88,9.98,3.88,16.1s-1.29,11.48-3.88,16.1c-2.58,4.62-6.25,8.19-11.01,10.72-4.75,2.53-10.27,3.79-16.55,3.79s-11.8-1.27-16.55-3.79ZM189.62,97.99c2.7-1.53,4.78-3.68,6.25-6.46,1.47-2.78,2.21-6,2.21-9.67s-.74-6.89-2.21-9.67c-1.47-2.78-3.56-4.93-6.25-6.46-2.7-1.53-5.8-2.29-9.3-2.29s-6.59.76-9.26,2.29c-2.67,1.53-4.74,3.68-6.21,6.46-1.47,2.78-2.21,6-2.21,9.67s.74,6.89,2.21,9.67c1.47,2.78,3.54,4.93,6.21,6.46,2.67,1.53,5.75,2.29,9.26,2.29s6.6-.76,9.3-2.29Z"/>
        <path class="cls-1" d="M273.64,76.52v26.02c-2.95,3.17-6.58,5.6-10.88,7.3-4.31,1.7-9.05,2.54-14.22,2.54-6.17,0-11.58-1.25-16.22-3.75-4.64-2.5-8.23-6.06-10.76-10.67-2.53-4.61-3.79-9.98-3.79-16.1s1.33-11.24,4-15.89c2.67-4.64,6.41-8.26,11.22-10.84,4.81-2.59,10.33-3.88,16.55-3.88,4.5,0,8.58.78,12.22,2.33,3.64,1.56,6.99,3.92,10.05,7.09l-8.26,8.17c-1.83-1.83-3.99-3.25-6.46-4.25-2.47-1-5.02-1.5-7.63-1.5-5.62,0-10.05,1.68-13.3,5.05-3.25,3.36-4.88,7.94-4.88,13.72,0,3.73.72,7,2.17,9.84,1.45,2.84,3.5,5.03,6.17,6.59,2.67,1.56,5.75,2.34,9.26,2.34,5.5,0,9.9-1.42,13.18-4.25v-8.92h-15.85v-10.92h27.44Z"/>
        <path class="cls-1" d="M328.02,111.04l-4.34-10.51h-28.77l-4.34,10.51h-14.59l26.19-58.38h14.59l26.02,58.38h-14.76ZM309.42,65.76l-9.59,23.02h19.01l-9.42-23.02Z"/>
        <path class="cls-1" d="M370.13,91.78h-7.92v19.26h-13.68v-58.38h28.44c4.22,0,7.92.82,11.09,2.46,3.17,1.64,5.61,3.96,7.34,6.96,1.72,3,2.58,6.45,2.58,10.34,0,4.45-1.15,8.26-3.46,11.43-2.31,3.17-5.57,5.42-9.8,6.75l16.51,20.43h-16.26l-14.84-19.26ZM382.1,66.51c-1.58-1.44-3.82-2.17-6.71-2.17h-13.26v16.43h13.26c2.95,0,5.2-.71,6.76-2.13,1.56-1.42,2.33-3.43,2.33-6.05s-.79-4.64-2.38-6.09Z"/>
      </g>
    </g>
  </g>
</svg>