<?xml version="1.0" encoding="UTF-8"?>
<svg id="Layer_2" data-name="Layer 2" xmlns="http://www.w3.org/2000/svg" viewBox="0 0 425.66 101.97">
  <defs>
    <style>
      .cls-1 {
        fill: #fff;
      }
    </style>
  </defs>
  <g id="Layer_1-2" data-name="Layer 1">
    <g>
      <path class="cls-1" d="M374.68,101.97H50.99C22.87,101.97,0,79.1,0,50.99S22.87,0,50.99,0h323.69c28.11,0,50.99,22.87,50.99,50.99s-22.87,50.99-50.99,50.99ZM50.99,4C25.08,4,4,25.08,4,50.99s21.08,46.99,46.99,46.99h323.69c25.91,0,46.99-21.08,46.99-46.99s-21.08-46.99-46.99-46.99H50.99Z"/>
      <g>
        <path class="cls-1" d="M62.57,67.14c-2.56-1.38-4.53-3.31-5.93-5.79-1.39-2.48-2.09-5.34-2.09-8.57s.71-6.1,2.13-8.6c1.42-2.5,3.4-4.43,5.95-5.79,2.54-1.36,5.45-2.04,8.71-2.04,4.64,0,8.62,1.63,11.94,4.89l-4.53,4.53c-2.01-1.91-4.41-2.87-7.23-2.87-1.89,0-3.55.41-5,1.23-1.45.82-2.57,1.98-3.37,3.48-.79,1.5-1.19,3.22-1.19,5.16s.4,3.67,1.19,5.16c.79,1.5,1.91,2.66,3.37,3.48,1.45.82,3.12,1.23,5,1.23,1.5,0,2.93-.27,4.31-.81s2.57-1.32,3.59-2.33l4.31,4.8c-3.38,3.26-7.47,4.89-12.25,4.89-3.38,0-6.35-.69-8.91-2.06Z"/>
        <path class="cls-1" d="M93.32,67.21c-2.56-1.36-4.53-3.28-5.93-5.77-1.39-2.48-2.09-5.37-2.09-8.66s.7-6.18,2.09-8.66c1.39-2.48,3.37-4.41,5.93-5.77,2.56-1.36,5.53-2.04,8.91-2.04s6.35.68,8.91,2.04c2.56,1.36,4.53,3.28,5.93,5.77,1.39,2.48,2.09,5.37,2.09,8.66s-.7,6.18-2.09,8.66c-1.39,2.48-3.37,4.41-5.93,5.77-2.56,1.36-5.53,2.04-8.91,2.04s-6.35-.68-8.91-2.04ZM107.23,61.46c1.45-.82,2.57-1.98,3.37-3.48.79-1.5,1.19-3.23,1.19-5.21s-.4-3.71-1.19-5.21c-.79-1.5-1.92-2.66-3.37-3.48-1.45-.82-3.12-1.23-5-1.23s-3.55.41-4.98,1.23c-1.44.82-2.55,1.98-3.34,3.48-.79,1.5-1.19,3.23-1.19,5.21s.4,3.71,1.19,5.21c.79,1.5,1.91,2.66,3.34,3.48,1.44.82,3.1,1.23,4.98,1.23s3.55-.41,5-1.23Z"/>
        <path class="cls-1" d="M152.23,37.06h6.6v31.42h-7.32v-19.66l-9.25,11.31h-1.44l-9.34-11.36v19.71h-7.32v-31.42h6.6l10.73,13.38,10.73-13.38Z"/>
        <path class="cls-1" d="M171.87,67.21c-2.56-1.36-4.53-3.28-5.93-5.77-1.39-2.48-2.09-5.37-2.09-8.66s.7-6.18,2.09-8.66c1.39-2.48,3.37-4.41,5.93-5.77,2.56-1.36,5.53-2.04,8.91-2.04s6.35.68,8.91,2.04c2.56,1.36,4.53,3.28,5.93,5.77,1.39,2.48,2.09,5.37,2.09,8.66s-.7,6.18-2.09,8.66c-1.39,2.48-3.37,4.41-5.93,5.77-2.56,1.36-5.53,2.04-8.91,2.04s-6.35-.68-8.91-2.04ZM185.79,61.46c1.45-.82,2.57-1.98,3.37-3.48.79-1.5,1.19-3.23,1.19-5.21s-.4-3.71-1.19-5.21c-.79-1.5-1.92-2.66-3.37-3.48-1.45-.82-3.12-1.23-5-1.23s-3.55.41-4.98,1.23c-1.44.82-2.55,1.98-3.34,3.48-.79,1.5-1.19,3.23-1.19,5.21s.4,3.71,1.19,5.21c.79,1.5,1.91,2.66,3.34,3.48,1.44.82,3.1,1.23,4.98,1.23s3.55-.41,5-1.23Z"/>
        <path class="cls-1" d="M238.69,37.06v18.09c0,2.84-.58,5.31-1.73,7.41-1.15,2.1-2.79,3.71-4.92,4.85-2.12,1.14-4.59,1.71-7.41,1.71-4.37,0-7.77-1.21-10.21-3.64-2.44-2.42-3.67-5.85-3.7-10.28h7.18c.03,2.36.63,4.18,1.8,5.45,1.17,1.27,2.81,1.91,4.94,1.91s3.73-.65,4.92-1.95c1.18-1.3,1.77-3.15,1.77-5.54v-11.63h-9.16v-6.37h16.52Z"/>
        <path class="cls-1" d="M251.23,67.21c-2.56-1.36-4.53-3.28-5.93-5.77-1.39-2.48-2.09-5.37-2.09-8.66s.7-6.18,2.09-8.66c1.39-2.48,3.37-4.41,5.93-5.77,2.56-1.36,5.53-2.04,8.91-2.04s6.35.68,8.91,2.04c2.56,1.36,4.53,3.28,5.93,5.77,1.39,2.48,2.09,5.37,2.09,8.66s-.7,6.18-2.09,8.66c-1.39,2.48-3.37,4.41-5.93,5.77-2.56,1.36-5.53,2.04-8.91,2.04s-6.35-.68-8.91-2.04ZM265.15,61.46c1.45-.82,2.57-1.98,3.37-3.48.79-1.5,1.19-3.23,1.19-5.21s-.4-3.71-1.19-5.21c-.79-1.5-1.92-2.66-3.37-3.48-1.45-.82-3.12-1.23-5-1.23s-3.55.41-4.98,1.23c-1.44.82-2.55,1.98-3.34,3.48-.79,1.5-1.19,3.23-1.19,5.21s.4,3.71,1.19,5.21c.79,1.5,1.91,2.66,3.34,3.48,1.44.82,3.1,1.23,4.98,1.23s3.55-.41,5-1.23Z"/>
        <path class="cls-1" d="M310.37,49.9v14.01c-1.59,1.71-3.54,3.02-5.86,3.93-2.32.91-4.87,1.37-7.65,1.37-3.32,0-6.23-.67-8.73-2.02-2.5-1.35-4.43-3.26-5.79-5.75-1.36-2.48-2.04-5.37-2.04-8.66s.72-6.05,2.15-8.55c1.44-2.5,3.45-4.44,6.04-5.84,2.59-1.39,5.56-2.09,8.91-2.09,2.42,0,4.62.42,6.58,1.26,1.96.84,3.76,2.11,5.41,3.82l-4.44,4.4c-.99-.99-2.15-1.75-3.48-2.29-1.33-.54-2.7-.81-4.11-.81-3.02,0-5.41.91-7.16,2.72-1.75,1.81-2.63,4.27-2.63,7.38,0,2.01.39,3.77,1.17,5.3.78,1.53,1.89,2.71,3.32,3.55,1.44.84,3.1,1.26,4.98,1.26,2.96,0,5.33-.76,7.09-2.29v-4.8h-8.53v-5.88h14.77Z"/>
        <path class="cls-1" d="M339.64,68.49l-2.33-5.66h-15.49l-2.33,5.66h-7.86l14.1-31.42h7.86l14.01,31.42h-7.95ZM329.63,44.11l-5.16,12.39h10.23l-5.07-12.39Z"/>
        <path class="cls-1" d="M362.31,58.12h-4.26v10.37h-7.36v-31.42h15.31c2.27,0,4.26.44,5.97,1.32,1.71.88,3.02,2.13,3.95,3.75.93,1.62,1.39,3.47,1.39,5.57,0,2.39-.62,4.44-1.86,6.15-1.24,1.71-3,2.92-5.27,3.64l8.89,11h-8.75l-7.99-10.37ZM368.75,44.51c-.85-.78-2.06-1.17-3.61-1.17h-7.14v8.84h7.14c1.59,0,2.8-.38,3.64-1.15.84-.76,1.26-1.85,1.26-3.25s-.43-2.5-1.28-3.28Z"/>
      </g>
    </g>
  </g>
</svg>