<?xml version="1.0" encoding="UTF-8"?>
<svg id="Layer_2" data-name="Layer 2" xmlns="http://www.w3.org/2000/svg" viewBox="0 0 128.95 128.95">
  <defs>
    <style>
      .cls-1 {
        fill: #2271b9;
      }

      .cls-2 {
        fill: #fff;
      }
    </style>
  </defs>
  <g id="Layer_1-2" data-name="Layer 1">
    <g>
      <circle class="cls-2" cx="64.48" cy="64.48" r="64.48"/>
      <path class="cls-1" d="M104.28,37.01c-.46-.72-1.98-1.08-2.86-1.17-3.49-.34-6.93-.49-10.44-.6-.12-1.85.09-4.55-1.31-5.77-.24-.21-.5-.41-.76-.59-3.47-.12-7.14-.05-10.64-.05h-17.9s-13.2-.02-13.2-.02c-2.45,0-5.55-.09-7.96.05-2.15,1.69-1.37,4.69-1.53,7.21-2.38.26-4.76.48-7.14.68-1.2.11-3.37.12-4.45.53-2.26.87-1.81,3.07-1.64,4.82,1.09,11.4,4.1,24.34,16.45,28.29,3.34,1.07,6.49,1.49,9.95,2.08,2.76.54,5.69,3.36,7.99,4.88-.31,3.06.12,6.24-.2,9.28-.06.64-1.86,1.35-2.42,1.5-3.14.84-4.44,2.15-6.4,4.65-1.6-.04-3.34-.24-4.62.92-1.4,1.28-1.37,3.99-.11,5.34,1.15,1.23,3.96,1.07,5.51,1.08l21.14.03c3.41,0,7.03.09,10.44-.12,2.31-.14,3.55-2.98,2.56-5.07-1.71-2.45-2.95-2.52-5.67-1.83-2.24-4.8-8.38-5.48-8.99-7.02-.44-1.1-.26-7.68-.17-9.19,1.73-1.39,5.46-4.17,7.56-4.52,6.81-1.14,13.78-2.01,18.9-7.28,5.08-5.22,7.25-13.47,8.08-20.56.14-1.27.59-6.45-.14-7.57ZM40.73,62.03c-6.13-3.33-7.94-12.17-8.65-18.51l4.38-.22,1.24-.05c.41,5.18,1.75,11.06,3.95,15.78.47,1.01,1.57,2.76,2.17,3.76-.45.86-2.47-.4-3.09-.75ZM97.28,43.14c-1.18,6.59-2.15,14.02-8,18.08-1.56.91-2.81,1.66-4.53,2.25,4.43-7.53,5.09-12.53,6.16-20.81,2.08.08,4.32.05,6.44.1l-.07.39Z"/>
    </g>
  </g>
</svg>