<?xml version="1.0" encoding="UTF-8"?>
<svg id="Layer_2" data-name="Layer 2" xmlns="http://www.w3.org/2000/svg" viewBox="0 0 128.95 128.95">
  <defs>
    <style>
      .cls-1 {
        fill: #fff;
      }

      .cls-2 {
        fill: #1872ba;
      }
    </style>
  </defs>
  <g id="Layer_1-2" data-name="Layer 1">
    <g>
      <circle class="cls-1" cx="64.48" cy="64.48" r="64.48"/>
      <path class="cls-2" d="M102.41,63.55c-2.22-.27-3.87-.47-5.36-2.42-1.9-2.48-3.2-8.88-3.07-11.9.75-.81,2.86-2.83,2.72-3.75-.42-2.82-6.16-9.06-8.22-10.83-2.02.83-4.27,1.87-6.32,2.48-3.94-1.61-7.54-2.79-10.39-6.05,0-.32,0-1.79-.07-1.99-1.22-3.83-8.55-3.1-11.61-2.95-3.4.67-3.28,2.5-3.92,5.55-1.88,1.9-6.92,4.57-9.55,5.55-1.68-.71-5.04-2.25-6.65-2.6-2.18,1.99-7.06,8.19-8.48,10.73,1.23,1.47,3.03,3.49,3.94,5.13-1.74,6.29-.8,11.72-8.3,13.12-1.24,3.46-.75,6.83.23,10.29,1.86,6.49,3.2,4.97,8.25,4.77,3.04,1.98,5.94,5.99,7.29,9.29-.22,1.23-1.38,5.75-.55,6.67,2.34,2.56,6.83,4.21,10.11,5.09,3.4.9,4.51-2.41,6.9-4.52,3.05-.05,6.11-.04,9.16.04,3.42.63,3.75,2.73,5.87,4.93,3.66-.58,7.35-2.12,10.53-4.01,3.53-2.11,1.77-4.46.96-7.47,1.34-2.52,5.19-8.93,7.95-9.75,2.32-.69,5.36.95,6.88-2.15,1.96-3.97,2.11-8.99,1.74-13.25ZM65.57,77.5c-7.66.7-14.42-4.96-15.11-12.61s4.97-14.42,12.63-15.1c7.65-.67,14.4,4.97,15.08,12.62.69,7.65-4.96,14.41-12.6,15.09Z"/>
    </g>
  </g>
</svg>