<?xml version="1.0" encoding="UTF-8"?>
<svg id="Layer_2" data-name="Layer 2" xmlns="http://www.w3.org/2000/svg" viewBox="0 0 1097.51 252.14">
  <defs>
    <style>
      .cls-1 {
        fill: #2271b9;
      }

      .cls-2 {
        fill: #65a9dc;
      }

      .cls-3 {
        fill: #4b95d0;
      }
    </style>
  </defs>
  <g id="Layer_1-2" data-name="Layer 1">
    <g>
      <path class="cls-2" d="M353.29,132.21s46.24-17.83,62.75-17.83,29.06-5.94,101.72,26.42c5.28,3.96,25.1-1.98,46.9-9.91s50.86-15.19,91.82.66c40.95,15.85,44.26,20.48,44.26,20.48l-23.12,75.3-290.64,5.28-39.63-64.07,5.94-36.33Z"/>
      <path class="cls-3" d="M6.43.12s113.26-6.5,257.26,74.53c144,81.03,239.84,101.28,279.58,101.28s107.57,2.88,286.6-106.13c107.77-65.61,263.73-51.08,263.73-51.08v213.86L6.43,235.5,0,0"/>
      <path class="cls-1" d="M7.26,95.6s76.19-8.59,225.54,54.17c149.35,62.75,283.35,56.15,335.7,55.49s177.32-27.64,318.25-84.55c104.69-42.28,210.77-21.8,210.77-21.8v131.45L3.64,252.14l3.62-156.54"/>
    </g>
  </g>
</svg>