<?xml version="1.0" encoding="UTF-8"?>
<svg id="Layer_2" data-name="Layer 2" xmlns="http://www.w3.org/2000/svg" viewBox="0 0 2251.17 319.18">
  <defs>
    <style>
      .cls-1 {
        fill: #3254a0;
      }

      .cls-2 {
        fill: #243a79;
      }
    </style>
  </defs>
  <g id="Layer_1-2" data-name="Layer 1">
    <g>
      <path class="cls-1" d="M577.38,61.75c34.14,5.13,67.49,14.37,99.82,26.41,31.83,11.85,62.67,26.13,93.27,40.83,28.04,13.47,55.91,27.31,84.27,40.08,47.07,21.2,95.18,41.19,145.4,53.63,32.74,8.11,66.23,13.53,99.97,14.64,6.51.21,13.02.23,19.53.05,32.27-.89,68.88-3.01,98.64-15.6,36.08-15.26,72.21-30.42,108.54-45.09,72.52-29.29,145.9-56.69,220.93-78.9,41.19-12.19,82.86-22.8,124.98-31.26,189.04-37.97,384.55-32.19,574.28-66.55,4.99,105.22,5.49,210.66,1.51,315.93,0-.42-451.12-2.62-492.13-2.86-164.87-.96-329.74-1.92-494.61-2.88-163.19-.95-326.38-1.96-489.56-2.97-164.39-1.01-328.78-2.02-493.16-3.03l-2.47-.02c-90.12-.55-180.24-1.11-270.35-1.66C4.16,202.7,2.08,102.88,0,3.07"/>
      <path class="cls-2" d="M41.48,159.69c11.26-10.87,28.05-13.18,43.64-14.6,104.26-9.5,207.08-.96,310.91,2.76,104.13,3.73,207.87,18.23,309.05,43.12,81.22,19.97,158.42,55.66,240.48,70.9,64.22,11.92,127.94,11.25,192.86,10.43,100.55-1.27,193.59-46.11,288.45-73.94,99.34-29.14,201.21-48.92,303.63-63.54,104.7-14.95,210.08-24.7,315.48-33.13,42.11-3.37,84.26-6.21,126.44-8.53,2.35-.13,4.82-.24,6.95.78,4.81,2.3,5.43,8.77,5.39,14.1-.59,68.68-1.17,137.36-1.76,206.04-219.7.51-439.4,1.02-659.11,1.53-205.81.48-411.62.99-617.43,1.49-178.4.43-356.81.86-535.21,1.29-102.3.25-204.6.49-306.9.74-7.41.02-14.83.04-22.24.05"/>
    </g>
  </g>
</svg>