<?xml version="1.0" encoding="UTF-8"?>
<svg id="Layer_2" data-name="Layer 2" xmlns="http://www.w3.org/2000/svg" viewBox="0 0 279.95 390.56">
  <defs>
    <style>
      .cls-1, .cls-2, .cls-3, .cls-4, .cls-5, .cls-6, .cls-7, .cls-8 {
        fill-rule: evenodd;
      }

      .cls-1, .cls-9 {
        fill: #c3c4c2;
      }

      .cls-10, .cls-3 {
        fill: #fff;
      }

      .cls-2 {
        fill: #1f3664;
      }

      .cls-4 {
        fill: #1c306e;
      }

      .cls-5 {
        fill: #4a4f54;
      }

      .cls-11 {
        fill: #002d74;
      }

      .cls-6 {
        fill: #b0b3b2;
      }

      .cls-7 {
        fill: #41505b;
      }

      .cls-8 {
        fill: #cfd2d3;
      }
    </style>
  </defs>
  <g id="Camada_1" data-name="Camada 1">
    <g>
      <path class="cls-3" d="M209.78,358.54h0c-7.93,4-6.21,15.8,2.54,17.36l32.8,5.86c6.75,1.21,12.42-5.1,10.51-11.68l-2.16-7.44c-1.03-3.53-4.05-6.12-7.7-6.59l-12.17-1.57c-8.17-1.05-16.46.36-23.81,4.07Z"/>
      <rect class="cls-10" x="176.59" y="343.57" width="36.73" height="18.8"/>
      <rect class="cls-10" x="91.15" y="346.95" width="36.73" height="18.8"/>
      <polygon class="cls-9" points="231.88 277.21 233.67 290.56 247.02 302.16 231.88 277.21"/>
      <polygon class="cls-10" points="218.6 282.87 236.13 284.22 238.82 289.09 230.82 293.41 218.6 282.87"/>
      <path class="cls-11" d="M261.36,256.38c-2.96-7.11-15.04-16.09-18.07-22.67-.93-2.02-1.4-5.43-1.81-8.64h-16.62c1.39,7.36,2.09,16.92,7.58,23.47,5.43,6.48,23.47,16.53,11.82,29.74-7.62,8.64-18.33,3.87-22.66,1.36.18,1.4.36,2.85.53,4.35,7.64,3.49,16.86.83,16.86.83,0,0-7.4,4.26-16.55,1.86.38,3.34.77,6.84,1.14,10.38,2.18.7,5.23,1.49,9.12,2.11.13.02.9.09,1.21.13,15.32,1.62,38.87-15.48,27.44-42.93ZM261.49,267.92c-1.24-4.43-8.45-17.93-12.16-21.48-1.94-1.85,5.87,5.46,7.56,8.02,4.81,7.32,4.85,14.34,4.6,13.46Z"/>
      <path class="cls-11" d="M135.63,352.34s3.52,9.24,2.66,14.51c-1.2,7.32-7.23,8.56-10.7,8.92-4.56.48-18.33.79-18.33.79,0,0-1.05.05-1.68.14-11.67,1.64-20.26,8.95-38.51,12.97-6.69,1.47-17.8,1.41-27.27-2.51-4.11-1.7-11.63-4.51-12.24-10.23-.36-3.34,1.18-7.79,2.73-9.81,15.46-20.17,45.78-20.17,45.78-20.17,0,0,6.18-.26,15.44,3.09,7.68,2.77,12.76,8.34,12.76,8.34,0,0,3.88.17,3.77-.02-1.41-2.36-7.77-6.73-7.77-6.73,0,0,20.54,2.16,27.39,1.78,1.51-.08,5.97-1.07,5.97-1.07Z"/>
      <path class="cls-11" d="M215.21,362.64c-1.3-.28-2.65.88-3.03,2.6-.37,1.72.38,3.34,1.68,3.62,1.3.28,2.65-.88,3.03-2.6.37-1.72-.38-3.34-1.68-3.62Z"/>
      <path class="cls-11" d="M233.04,363.55c-1.25-.17-2.44,1.06-2.66,2.73-.22,1.67.61,3.16,1.86,3.32,1.25.17,2.44-1.06,2.66-2.73s-.61-3.16-1.86-3.32Z"/>
      <path class="cls-11" d="M271.27,362.08c-.8-4.8-4.88-14.16-18.86-18.09-17.76-5-33.96-.85-33.96-.85l-14.22,4.45s-4.5-.42-11.41,8.06c-1.63,2.01-4.52,2.65-4.26,1.93,1.18-3.22,5.73-6.58,5.73-6.58,0,0-14.17,2.22-18.95,2.56-4.91.34-19.67.11-19.67.11,0,0-5.72,8.54-3.38,17.63,1.11,4.32,4.29,8.08,17.82,7.74,6.68-.17,20.1-2.54,26.71-1.5,5.2.82,6.18,1.02,20.62,4.2,16.55,3.64,31.56,3.4,39.15,1.91,6.12-1.2,17.26-6.04,14.67-21.57ZM219,371.07c-.03.23-.23.4-.46.39l-1.1-.05c-.21-.01-.38-.16-.41-.37l-.04-.9c-.05-.31.09-.38-.18-.22-.81.48-2.91,1.52-4.26,1.19-1.38-.33-3.18-1.04-3.18-4.68,0-4.31,2.97-5.97,3.68-6.18,3.69-1.06,5.02,2.23,5.02,2.23l.11-.55.33-1.26c.05-.19.22-.33.42-.33h.82c.27-.02.48.22.45.48l-1.2,10.24ZM226.07,357.28l-1.89,13.13c-.08.58-.62.97-1.2.88l-.21-.03c-.57-.09-.96-.62-.87-1.19l1.99-13.1c.08-.51.52-.89,1.03-.89h.11c.64,0,1.13.56,1.04,1.2ZM234.28,372.27c-2.25.72-3.65-.65-4.4-1.36-.39-.37-.54-.69-.54-.69l-.27.74c-.18.49-.7.76-1.2.62l-.42-.11c-.35-.09-.57-.43-.53-.79l1.76-13.41c.07-.52.49-.92,1.02-.95l.88-.06c.35-.02.63.29.58.63l-.77,5.17s1.91-1.2,3.13-1.13c1.58.1,4.19,1.13,4.46,4.78.26,3.53-2.1,6.01-3.71,6.53ZM242.97,362.55l-1.38,8.9c-.06.43-.41.75-.84.79-.69.05-1.25-.54-1.16-1.22l1.13-8.28c.09-.69.67-1.21,1.37-1.21.54,0,.96.48.88,1.02ZM242.48,359.4c-.78,0-1.41-.63-1.41-1.41s.63-1.41,1.41-1.41,1.41.63,1.41,1.41-.63,1.41-1.41,1.41Z"/>
      <rect class="cls-10" x="102.88" y="106.02" width="95.87" height="64.93"/>
      <path class="cls-10" d="M76.84,345.98c-2.89-19.62,2.78-96.19,12.62-143.91,1.76-8.53,6.44-16.02,14-16.98,28.37-3.6,64.86-3.67,87.22-3.24,11.82.23,18.77,13.38,20.92,19.89,8.77,26.6,6.53,109.1,8.97,141.83.52,6.95-7.46,17.08-27.35,15.85-15.66-.97-26.29,5.28-39.81-1.11-4.64-2.2-.29-25.93-4.09-29.37-.65-.59-2.86-.58-3.53,0-3.98,3.45-1.44,30.82-6.4,31.99-4.48,1.06-13.45,3.03-22.92,1.67-7.7-1.1-14.66-6.73-21.65-8.79-9.41-2.76-17.5-4.6-17.98-7.83Z"/>
      <rect class="cls-10" x="110.43" y="179.49" width="3.88" height="8.42"/>
      <rect class="cls-10" x="184.56" y="177.24" width="3.3" height="14.85"/>
      <path class="cls-9" d="M73.39,201.38s7.2,8.05,8.13,13.62c.04.24-.51-.55-.67-1.14-1.09-4.09-7.46-12.48-7.46-12.48Z"/>
      <path class="cls-11" d="M190.4,214.51c-.6-5-5.14-8.58-10.14-7.98-5.01.6-8.58,5.14-7.98,10.15s5.14,8.58,10.15,7.98c1.08-.13,2.09-.44,3.01-.9l-.26-2.23c-.87.56-1.89.94-2.99,1.07-3.88.46-7.4-2.3-7.86-6.18-.46-3.88,2.31-7.4,6.18-7.86s7.4,2.29,7.86,6.17c.4,3.32,3.41,5.68,6.72,5.29,3.32-.4,5.68-3.41,5.29-6.72-.4-3.32-3.41-5.68-6.72-5.29-1.13.14-2.14.57-2.98,1.22l.32,2.66c.62-.99,1.66-1.69,2.9-1.84,2.19-.26,4.18,1.3,4.44,3.49.26,2.19-1.3,4.18-3.49,4.44-2.19.26-4.17-1.28-4.43-3.47"/>
      <path class="cls-11" d="M185.28,215.09c-.26-2.19-2.25-3.75-4.43-3.49-2.19.26-3.75,2.25-3.49,4.44.26,2.19,2.25,3.75,4.44,3.49,1.24-.15,2.29-.85,2.91-1.84l.32,2.67c-.84.64-1.85,1.08-2.98,1.21-3.32.4-6.33-1.97-6.72-5.29-.4-3.32,1.97-6.33,5.29-6.72,3.32-.4,6.34,1.98,6.73,5.29.46,3.88,3.98,6.65,7.86,6.18,3.88-.46,6.65-3.98,6.18-7.86s-3.98-6.65-7.86-6.18c-1.11.13-2.12.51-3,1.08l-.26-2.2c.92-.47,1.94-.78,3.02-.91,5.01-.6,9.55,2.97,10.14,7.98.6,5-2.97,9.55-7.98,10.14-5,.6-9.57-3-10.17-8"/>
      <path class="cls-11" d="M184.21,205.9c.77.23,1.49.54,2.18.94l-.54-4.52-2.04.24.4,3.34Z"/>
      <path class="cls-11" d="M187.51,207.6c.93.72,1.74,1.6,2.37,2.61l-.99-8.25-2.04.24.65,5.4Z"/>
      <path class="cls-11" d="M185.82,219.35l.57,4.82,2.04-.24-.23-1.91c-.94-.74-1.75-1.64-2.38-2.67"/>
      <path class="cls-11" d="M189.32,222.78l.12,1.03,1.67-.2c-.63-.22-1.22-.5-1.79-.83"/>
      <path class="cls-10" d="M184.97,152.11c-1.39-.56-2.53-.59-3.75-.94-4.16,3.71-29.28,24.17-64.26,11.64-.41-.15-.02-3.61.37-3.48,35.17,11.52,56.3-7.53,59.78-11.01-.57-.64-1.19-1.42-1.86-2.38-.85-1.22,2.32-3.06,2.99-2.38,6.74,6.73,8.35,3.28,9.53,5.8.42.89-1.71,3.19-2.81,2.75Z"/>
      <path class="cls-10" d="M149.26,85.23c0-3.18-2.58-5.76-5.76-5.76s-5.76,2.58-5.76,5.76,2.58,5.76,5.76,5.76c.68,0,1.34-.12,1.95-.34v-1.42c-.59.29-1.25.45-1.95.45-2.47,0-4.46-2-4.46-4.46s2-4.46,4.46-4.46,4.47,1.99,4.47,4.46c0,2.11,1.71,3.82,3.82,3.82s3.82-1.71,3.82-3.82-1.71-3.82-3.82-3.82c-.72,0-1.39.2-1.96.54v1.69c.46-.57,1.17-.94,1.96-.94,1.39,0,2.52,1.13,2.52,2.52s-1.13,2.52-2.52,2.52-2.52-1.11-2.52-2.5"/>
      <path class="cls-10" d="M146.01,85.21c0-1.39-1.13-2.52-2.52-2.52s-2.52,1.13-2.52,2.52,1.13,2.52,2.52,2.52c.79,0,1.5-.36,1.96-.93v1.7c-.57.34-1.24.54-1.96.54-2.11,0-3.82-1.71-3.82-3.82s1.71-3.82,3.82-3.82,3.82,1.71,3.82,3.82c0,2.47,2,4.46,4.46,4.46s4.46-2,4.46-4.46-2-4.46-4.46-4.46c-.7,0-1.37.16-1.96.45v-1.4c.61-.22,1.27-.35,1.96-.35,3.18,0,5.76,2.58,5.76,5.76s-2.58,5.76-5.76,5.76-5.77-2.6-5.77-5.78"/>
      <path class="cls-10" d="M146.03,79.38c.46.2.9.45,1.29.75v-2.88h-1.29v2.13Z"/>
      <path class="cls-10" d="M147.97,80.68c.53.52.97,1.14,1.29,1.81v-5.25h-1.3v3.43Z"/>
      <path class="cls-10" d="M146.03,87.93v3.07s1.29,0,1.29,0v-1.22c-.53-.53-.97-1.16-1.29-1.85"/>
      <path class="cls-10" d="M147.97,90.34v.65s1.06,0,1.06,0c-.38-.18-.73-.4-1.06-.65"/>
      <polygon class="cls-3" points="196.28 171.54 109.07 171.54 111.06 110.42 196.28 106.94 196.28 171.54"/>
      <polygon class="cls-10" points="105.41 117.45 176.35 111.29 198.18 116.04 202.36 165.95 142.12 177.59 114.85 177.64 97.36 159.16 105.41 117.45"/>
      <path class="cls-11" d="M135.89,122.03c-4,0-7.23,4.95-7.23,11.07s3.24,11.07,7.23,11.07,7.23-4.95,7.23-11.07-3.24-11.07-7.23-11.07ZM134.85,134.66c-1.19,0-2.15-1.88-2.15-4.2s.96-4.2,2.15-4.2,2.15,1.88,2.15,4.2-.96,4.2-2.15,4.2Z"/>
      <path class="cls-11" d="M135.89,144.63c-4.24,0-7.7-5.17-7.7-11.53s3.45-11.53,7.7-11.53,7.7,5.17,7.7,11.53-3.45,11.53-7.7,11.53ZM135.89,122.5c-3.73,0-6.77,4.76-6.77,10.6s3.04,10.6,6.77,10.6,6.77-4.76,6.77-10.6-3.04-10.6-6.77-10.6ZM134.85,135.12c-1.46,0-2.61-2.05-2.61-4.66s1.15-4.66,2.61-4.66,2.61,2.05,2.61,4.66-1.15,4.66-2.61,4.66ZM134.85,126.73c-.8,0-1.68,1.53-1.68,3.74s.89,3.74,1.68,3.74,1.68-1.53,1.68-3.74-.89-3.74-1.68-3.74Z"/>
      <path class="cls-11" d="M210.18,139.21c-.6-6.92-2.1-20.77-3.46-27.58-.57-2.87-1.76-7.91-14.59-7.93-11.16-.02-33.43-.51-44.55,0-2.22.1-6.64.61-8.84.91-8.37,1.14-24.97,4.26-33.24,6-2.4.51-7.55,2.02-8.48,8.86-1.41,10.36-3.69,32.79-2.59,44.52,1.27,13.48,9.05,18.47,14.25,19.1,2.98.36,12.01.15,12.01.15l73.58-2.16s13.79-1.34,15.92-15.64c.97-6.49.57-19.7,0-26.23ZM190.24,145.83c-.47.04-2.55.1-2.72.09-27.11-1.3-52.83.76-70.32,2.63-2.8.3-11.45,1.71-11.45,1.71l.13-.85,5.82-1.42s-2.45-3.25-2.57-6.24c-.26-6.22,1.6-14.01,2.83-18.37.93-3.31,3.66-3.84,5.31-4.05,33.32-4.11,54.11-2.83,68.83-.76,4.65.65,5.42,1.84,5.95,3.48,1.21,3.76,2.42,11.59,2.97,15.5.32,2.28.08,7.92-4.78,8.29Z"/>
      <path class="cls-10" d="M192.59,158.84c-1.49-.6-2.72-.63-4.02-1.01-4.47,3.98-31.41,25.93-68.94,12.49-.44-.16-.02-3.87.39-3.74,37.73,12.36,60.4-8.07,64.14-11.81-.61-.69-1.27-1.52-1.99-2.55-.92-1.31,2.49-3.28,3.21-2.56,7.23,7.22,8.96,3.51,10.22,6.23.45.96-1.83,3.42-3.01,2.95Z"/>
      <path class="cls-2" d="M96.12,125.89s-.02.07-.06.19c2.14-1.24,18.46-10.5,35.11-14.13,17.86-3.9,36.86-6.37,49.89-6.47,12.9-.1,23.39,2.09,23.61,2.13h0s-16.83-9.83-16.83-9.83c0,0-48.2-2.36-63.44,2.57-15.13,4.89-25.99,16.92-26.15,17.1h0s-2.09,7.61-2.09,7.61c-.01.28-.02.55-.02.83Z"/>
      <path class="cls-5" d="M101.26,87.75c1.16.89-11.95,11.17-22.42,13.65-10.47,2.48-22.17-11.05-22.71-26.39-1.05-29.67,38.48-39.61,38.48-39.61,12.45-2.32,7.33-29.85,51.05-35.08,28.8-3.44,40.82,20.9,40.82,20.9,6.58-11.23,60.73,3.61,42.79,33.33,0,0,11.53,1,6.66,18.21-4.87,17.21-33.95,8.35-47.58,4.46-13.63-3.9-87.09,10.52-87.09,10.52Z"/>
      <path class="cls-3" d="M101.26,87.75c.72.55-4.05,4.72-10.28,8.4-3.62.53-7.03.54-9.62-.44-8.24-3.12-24.72-15.59-12.92-29.63,11.81-14.03,30.07-15.37,42.99-26.51,12.92-11.14,13.59-24.28,26.28-28.51,12.7-4.23,21.83-2,33.86,8.91,12.03,10.91,27.4,2.23,39.87,14.48,12.47,12.25,3.34,17.82,9.13,26.28,5.79,8.46,12.7,13.36,6.68,16.04-6.01,2.67-36.3-6.18-59.47-1.34-5.54,1.16-11.6,2.57-17.61,4.04-23.65,3.31-48.92,8.27-48.92,8.27Z"/>
      <path class="cls-7" d="M96.12,125.89c-1.15-8.36-2.79-33.99-3.38-38.91-2.03-17.03,98.83-36.6,105.13-15.41,1.11,3.73,8.69,37.24,6.95,36.15-25.71-16.01-93.7-3.85-108.7,18.18Z"/>
      <path class="cls-3" d="M95.82,126.22c-1.15-8.36-2.49-34.32-3.08-39.25-.17-1.4.37-2.81,1.48-4.22,18.09-14.85,95.91-27.49,101.43-8.97.9,3.02,6.34,24.81,7.28,32.83-28.62-10.29-91.43,4.72-107.11,19.6Z"/>
      <path class="cls-7" d="M179.88,63.53c1.57,2.36,2.98,31.66,1.85,37.4,0,0-1.8-24.78-2.36-28.47s-1.33-8.73-1.33-8.73l1.85-.21Z"/>
      <path class="cls-7" d="M165.09,63.47c1.57,2.36,2.98,31.66,1.85,37.4,0,0-1.8-24.78-2.36-28.47-.56-3.7-1.33-8.73-1.33-8.73l1.85-.21Z"/>
      <path class="cls-7" d="M120.2,70.72c-1.27,2.53.92,31.78,2.75,37.35,0,0-1.25-24.81-1.14-28.55.11-3.74.26-8.82.26-8.82l-1.86.02Z"/>
      <path class="cls-7" d="M102.55,76.64c-1.27,2.53.92,31.78,2.75,37.35,0,0-1.25-24.81-1.14-28.55.11-3.74.26-8.82.26-8.82l-1.86.02Z"/>
      <path class="cls-11" d="M146.6,88.71c-.82-4.33-5-7.17-9.34-6.35s-7.17,5.01-6.35,9.34c.82,4.33,5,7.17,9.34,6.35.93-.18,1.8-.51,2.57-.97l-.36-1.93c-.73.55-1.59.94-2.55,1.12-3.36.64-6.6-1.56-7.24-4.92-.64-3.36,1.56-6.6,4.92-7.23s6.6,1.55,7.24,4.91c.55,2.87,3.32,4.75,6.19,4.21,2.87-.55,4.75-3.32,4.21-6.19-.55-2.87-3.32-4.75-6.19-4.21-.98.19-1.84.63-2.53,1.25l.44,2.3c.48-.9,1.34-1.58,2.42-1.78,1.89-.36,3.73.88,4.09,2.78.36,1.89-.89,3.72-2.78,4.08-1.89.36-3.72-.86-4.08-2.76"/>
      <path class="cls-11" d="M142.18,89.53c-.36-1.89-2.19-3.13-4.08-2.77s-3.14,2.19-2.78,4.08c.36,1.89,2.19,3.14,4.08,2.78,1.08-.2,1.94-.88,2.42-1.78l.44,2.31c-.69.61-1.55,1.05-2.53,1.24-2.87.55-5.64-1.34-6.19-4.21-.55-2.87,1.33-5.64,4.21-6.19,2.87-.55,5.65,1.34,6.19,4.21.64,3.36,3.88,5.56,7.24,4.92,3.36-.64,5.56-3.88,4.92-7.24-.64-3.36-3.88-5.56-7.24-4.92-.96.18-1.82.58-2.55,1.13l-.36-1.9c.78-.46,1.64-.8,2.58-.98,4.33-.82,8.51,2.02,9.34,6.35.82,4.33-2.02,8.51-6.35,9.34s-8.53-2.04-9.36-6.37"/>
      <path class="cls-11" d="M140.68,81.58c.68.15,1.34.38,1.96.69l-.75-3.92-1.76.34.55,2.89Z"/>
      <path class="cls-11" d="M143.66,82.85c.86.57,1.62,1.29,2.23,2.14l-1.36-7.14-1.76.34.89,4.67Z"/>
      <path class="cls-11" d="M142.9,93.22l.79,4.17,1.76-.34-.32-1.66c-.86-.58-1.62-1.32-2.24-2.18"/>
      <path class="cls-11" d="M146.16,96l.17.89,1.45-.27c-.56-.15-1.1-.36-1.62-.62"/>
      <path class="cls-5" d="M152.8,203.06c1.05.14,2-.5,2.13-1.43s-.63-1.8-1.67-1.94-2,.5-2.13,1.43c-.13.93.63,1.8,1.67,1.94Z"/>
      <path class="cls-5" d="M152.8,216.73c1.05.14,2-.5,2.13-1.43.13-.93-.63-1.8-1.67-1.94s-2,.5-2.13,1.43.63,1.8,1.67,1.94Z"/>
      <path class="cls-5" d="M152.8,231.36c1.05.14,2-.5,2.13-1.43.13-.93-.63-1.8-1.67-1.94-1.05-.14-2,.5-2.13,1.43-.13.93.63,1.8,1.67,1.94Z"/>
      <path class="cls-5" d="M152.8,246.42c1.05.14,2-.5,2.13-1.43.13-.93-.63-1.8-1.67-1.94s-2,.5-2.13,1.43c-.13.93.63,1.8,1.67,1.94Z"/>
      <path class="cls-5" d="M152.8,261.02c1.05.14,2-.5,2.13-1.43.13-.93-.63-1.8-1.67-1.94s-2,.5-2.13,1.43c-.13.93.63,1.8,1.67,1.94Z"/>
      <path class="cls-5" d="M152.8,274.6c1.05.14,2-.5,2.13-1.43.13-.93-.63-1.8-1.67-1.94-1.05-.14-2,.5-2.13,1.43-.13.93.63,1.8,1.67,1.94Z"/>
      <path class="cls-8" d="M124.01,363.05c-.04.25,9.04-.62,13.14-1.52,3.58-.79,3.86-1.04,4.68-5.18,1.12-5.69,1.96-21.35,1.96-21.35l-3.27-12.55-9.46,4.32s-5.22,24.95-7.05,36.29Z"/>
      <path class="cls-8" d="M150.53,336.86s.57,12.96.79,16.11c.43,6.19,3.35,6.19,5.26,6.77,2.57.78,6.73,1.32,6.73,1.32l-.49-28.88-12.3,4.68Z"/>
      <g>
        <path class="cls-3" d="M99.28,186.41c-9.44.09-23.13,14.91-25.35,15.31-1.51.27-13.23-28.75-22.55-30.61-7.36-1.47-1.97,5.34-25.15,16.39-3.41,1.62,18.47,46.11,32.01,54.08,4.07,2.4,15.65,3.38,24.13,3.66,3.32-25.01,12.39-54.37,16.92-58.83Z"/>
        <polygon class="cls-1" points="48.39 171.11 44.61 172.5 45.32 174.4 48.39 171.11"/>
        <polygon class="cls-6" points="26.22 187.5 35.05 179.5 36.57 183.02 26.22 187.5"/>
        <path class="cls-4" d="M34.45,177.97l9.53-7.53,1.86,4.62s-6.28,8.27-9.19,7.61c-1.27-.28-2.2-4.71-2.2-4.71Z"/>
        <path class="cls-8" d="M26.22,187.5l3.72-1.61s9.05,21.49,17.53,33.92c1.22,1.79,11.4,15.19,12.91,16.31,6.84,5.04,23.59,6.34,23.59,6.34l-.37,2.79s-14.83-.59-19.65-1.67c-2.93-.66-5.25-.77-10.46-5.86-5.75-5.62-13.74-18.32-17.33-25.03-2.53-4.74-8.23-15.76-10.17-23.1-.36-1.38.23-2.08.23-2.08Z"/>
        <polygon class="cls-10" points="19.41 171.15 20.82 178.09 28 180.71 38.85 176.29 45.18 169.88 46.72 164.31 43.64 158.01 45.39 148.67 42.97 142.91 39.93 136.27 41.99 128.15 50.79 121.46 53.92 119.09 48.21 111.79 42.61 111.33 37.93 112.72 31.8 119.87 24.54 126.65 30.85 144.46 23.13 151.66 16.74 156.85 11.44 163.23 14.01 168.52 19.41 171.15"/>
        <path class="cls-11" d="M51.73,112.07c-17.32-9.48-24.54,11.93-24.54,11.93,0,0-5.16-1.99-11.5,1.52-3.66,2.03-2.71,4.62-3.34,4.72-7.37,1.2-6.83,8.35-6.83,8.35,0,0-3.3,2.32-3.08,6.19,0,.04.02.14-.02.16-3.63,1.87-2.11,5.83-2.11,5.83,0,0,3.37,7.67,5.19,10.01,1.62,2.08,4.85,3.25,4.85,3.25,0,0,2.2,6.85,7.79,8.32.04,0,.03.07.04.1.84,2.22.41,5.21,4.68,8.27,2.23,1.6,8.38.7,8.38.7,0,0,12.49-6.42,14.89-10.17,5.62-8.79-1.12-12.74-1.12-12.74l-.07-.72s2.21-4.69,1.46-10.73c-.7-5.68-5.42-7.6-4.77-13.28.87-7.63,8.1-9.53,11.55-11.21,2.66-1.29,3.54-7.77-1.45-10.5ZM16.01,128.89c1.02-1.27,3.58-1.85,4.86-1.97,1.4-.13,5.72-.27,5.72-.27l-.11,2.97s-.85.16-1.07.25c-.47.19-.92.77-.98,1.27-.32,2.75,2.02,2.54,4.97,10.17,1.08,2.78.89,4.48.16,5.77-.38.68-.98,1.82-2.07,2.32-.62.28-2.3.22-3.04-.95-1.62-2.57-2.35-6.5-4.59-10.13-1.35-2.2-3.07-4.65-4.02-6.61-.31-.64-.66-1.8.16-2.83ZM8.72,136.16c.44-1.03,2.24-2.48,3.34-2.7,1.11-.23,1.51.77,1.68,1.11,1.88,3.67,5.85,10.44,7.15,14.35.3.88.22,1.88,0,2.45-.28.72-.82,2-1.93,2.43-1.48.57-2.39.37-2.93-.41-2.73-3.93-5.9-10.51-7.22-14.56-.2-.63-.41-1.93-.09-2.68ZM9.13,160.79c-.6-.31-1.24-1.04-1.73-1.64-.66-.8-1.4-2.18-2.01-4.12-.45-1.41-2.41-3.8-2.73-5.25-.24-1.09.55-2.42.55-2.42,0,0,.66,1.2.89,1.6.61,1.07,1.84,2.69,3.2,5.59,1.02,2.17,2.17,3.4,3.82,5.65.65.89-1.57.79-1.98.58ZM8.56,151.63c-.77-1.82-3.4-5.15-3.41-7.12,0-1.58.93-3.38,1.46-2.79.67.74,2.91,6.65,5.51,10.93,1.43,2.36,2.7,2.97,2.95,4.02.19.78-.55,1.77-2.48,1.14-1.72-.56-3.33-4.52-4.04-6.19ZM45.38,167.03c-1.34,4.55-10.08,10.74-14.71,11.75-1.97.43-5.33.18-7.08-.85-2.94-1.73-2.77-4.95-2.77-4.95,0,0,9.58,0,11.36-6.57.02-.09-.05-.2.04-.18,7.66,1.68,11.56-5.44,11.56-5.44,0,0,2.7,2.49,1.6,6.23ZM50.63,120.12c-1.62.79-4.05,1.33-6.68,3.51-3.06,2.54-4.33,5.55-4.73,7.29-.47,2.03-.41,4.51-.1,6.17.72,3.89,4.96,8.03,4.36,13.59-.37,3.46-1.09,8.24-5.35,11.45-1.35,1.01-3.47,2.28-6.61,1.33-1.82-.55-4.53-3.07-4.53-3.07l-1.91,2.15,4.43,3.27s-1.4,3.92-8.42,4.53c-2.83.25-8.2-2.69-8.2-7.87,0-.03-.01-.1.04-.15.47-.44.91-1.86.91-1.86,0,0,1.43-.24,2.18-.95.92-.88,1.26-2.38,1.26-2.38,0,0,2.95-.26,4.33-1.46,1.09-.95,1.7-3.1,1.7-3.1,0,0,4.6.95,6.85-1.12,3.07-2.83,2.56-5.56,2.45-7.12-.24-3.1-2.2-6.5-2.86-9.37-.75-3.24-.04-8.23.68-11,1.23-4.73,6.95-12.5,16.15-11.04,4.85.77,5.28,5.69,5.28,5.69,0,0,.17.85-1.23,1.53Z"/>
        <path class="cls-10" d="M14.42,128.4l7.51-3.75,8.95,15.43.72,7.92-6.38,3.65-3.24-5.25-.57,7.41-4.68,2.37-1.92,2.88-2.25.93-2.06,2.26-4.37-1.31-4.84-11.39,1.95-4.12,2.98-6.74,2.31-4.84s5.46-2.11,5.46-2.26.41-3.19.41-3.19Z"/>
        <path class="cls-11" d="M51.73,112.07c-4.29-2.35-7.97-2.8-11.06-2.15l-.4,3.45c1.87-.62,3.97-.84,6.3-.47,4.85.77,5.28,5.69,5.28,5.69,0,0,.17.85-1.23,1.53-1.62.79-4.05,1.33-6.68,3.51-3.06,2.54-4.33,5.55-4.73,7.29-.47,2.03-.41,4.51-.1,6.17.72,3.89,4.96,8.03,4.36,13.59-.37,3.46-1.09,8.24-5.35,11.45-.91.69-2.19,1.49-3.89,1.64-1.3,1.37-2.51,1.98-4.9,2.4h0c-.54.98-2.53,3.67-8.25,4.17-2.83.25-8.2-2.69-8.2-7.87,0-.03-.01-.1.04-.15.47-.44.91-1.86.91-1.86,0,0,1.43-.24,2.18-.95.92-.88,1.26-2.38,1.26-2.38,0,0,2.95-.26,4.33-1.46,1.09-.95,1.7-3.1,1.7-3.1,0,0,4.6.95,6.85-1.12,3.07-2.83,2.56-5.56,2.45-7.12-.24-3.1-1.45-6.79-2.86-9.37-2.48-4.54-6.19-8.69-5.59-11.54,0,0-2.13-1.39-8.46,2.12-3.66,2.03-2.71,4.62-3.34,4.72-7.37,1.2-6.83,8.35-6.83,8.35,0,0-3.3,2.32-3.08,6.19,0,.04.02.14-.02.16-3.63,1.87-2.11,5.83-2.11,5.83,0,0,3.37,7.67,5.19,10.01,1.62,2.08,4.85,3.25,4.85,3.25,0,0,2.2,6.85,7.79,8.32.04,0,.03.07.04.1.84,2.22.41,5.21,4.68,8.27,2.23,1.6,8.38.7,8.38.7,0,0,12.49-6.42,14.89-10.17,5.62-8.79-1.12-12.74-1.12-12.74l-.07-.72s2.21-4.69,1.46-10.73c-.7-5.68-5.42-7.6-4.77-13.28.87-7.63,8.1-9.53,11.55-11.21,2.66-1.29,3.54-7.77-1.45-10.5ZM16.01,128.89c1.02-1.27,3.58-1.85,4.86-1.97,1.4-.13,2.59,1.8,3.57,4.22,1.03,2.57,2.02,2.54,4.97,10.17,1.08,2.78.89,4.48.16,5.77-.38.68-.98,1.82-2.07,2.32-.62.28-2.3.22-3.04-.95-1.62-2.57-2.35-6.5-4.59-10.13-1.35-2.2-3.07-4.65-4.02-6.61-.31-.64-.66-1.8.16-2.83ZM8.72,136.16c.44-1.03,2.24-2.48,3.34-2.7,1.11-.23,1.51.77,1.68,1.11,1.88,3.67,5.85,10.44,7.15,14.35.3.88.22,1.88,0,2.45-.28.72-.82,2-1.93,2.43-1.48.57-2.39.37-2.93-.41-2.73-3.93-5.9-10.51-7.22-14.56-.2-.63-.41-1.93-.09-2.68ZM9.13,160.79c-.6-.31-1.24-1.04-1.73-1.64-.66-.8-1.4-2.18-2.01-4.12-.44-1.41-2.41-3.8-2.72-5.25-.24-1.09.54-2.42.54-2.42,0,0,.66,1.2.89,1.6.61,1.07,1.84,2.69,3.2,5.59,1.02,2.17,2.17,3.4,3.81,5.65.65.89-1.57.79-1.98.58ZM8.56,151.63c-.77-1.82-3.4-5.15-3.41-7.12,0-1.58.93-3.38,1.46-2.79.67.74,2.91,6.65,5.51,10.93,1.43,2.36,2.7,2.97,2.95,4.02.19.78-.55,1.77-2.48,1.14-1.72-.56-3.33-4.52-4.04-6.19ZM45.38,167.03c-1.34,4.55-10.08,10.74-14.71,11.75-1.97.43-5.33.18-7.08-.85-2.94-1.73-2.77-4.95-2.77-4.95,0,0,9.58,0,11.36-6.57.02-.09-.05-.2.04-.18,7.66,1.68,11.56-5.44,11.56-5.44,0,0,2.7,2.49,1.6,6.23Z"/>
      </g>
      <polygon class="cls-2" points="132.1 180.33 177.42 177.24 168.01 191.1 149.19 195.58 130.56 190.36 132.1 180.33"/>
      <path class="cls-8" d="M115.76,179.19c-1.11,1.4-2.89,7.06-2.89,7.06,1.21,3.8,18.09,7.33,27.03,7.43h0c.87.37,7.96,2.47,7.96,2.47l1.87-1.05c-2.53-.34-5.94-1.75-8.18-2.41.15-2.61.51-9.61-.06-9.54-.71.08-25.73-3.97-25.73-3.97Z"/>
      <path class="cls-8" d="M183.81,178.97c1.27,1.27,0,6.05,0,6.05-.69,3.5-9.03,4.14-17.98,7.6-6.48,2.09-11.18,2.6-16.99,3.83,0,0-4.11,83.96-4.08,83.3.03-.66-1.85.58-1.74-1.5.1-2.08,4.32-82.74,4.32-82.74l11.68-3.4s-2.07-8.88-1.36-8.88,26.16-4.25,26.16-4.25Z"/>
      <path class="cls-7" d="M80.12,263.51c-1.58-.47-9.18,1.42-16.3,6.8-7.12,5.38-9.65,11.39-3.96,11.71,5.7.32,20.25-18.51,20.25-18.51h0ZM79.01,264.3s-18.67,19.69-20.93,15.43c-1.63-3.08,13.45-13.47,17.48-14.83,2.22-.75,3.44-.59,3.44-.59Z"/>
      <path class="cls-5" d="M80.29,262.25c-.12.05.15.64.03.7-.41.37.32-.97-1.09.91-6.04,14-2.16,54.9-8.11,68.6-.68,1.57,16.31-3.83,28.68-1.93,15.33,2.35,34.55,9.52,53.25,7.86,33.77-2.99,23.32-4.23,41.39-5.74,18.07-1.51,37.45,2.15,37.45,2.15,0,0-6.2-36.29-12-68.76,0,0,2.1,19.8,2.98,29.95,1.01,11.74-.8,19.95-6.38,21.39-5.58,1.44-28.51,10.22-32.59,7.39-4.08-2.83-14.45-46.08-17.24-46.81-2.79-.72-3.59,17.54-5.18,31-1.59,13.46-1.59,20.67-14.35,21.15-12.76.48-18.74-3.12-19.14-6.01-.4-2.88.8-15.38-5.18-15.38s-7.97,5.05-12.36,8.89c-4.39,3.85-17.54,4.57-23.52,5.53-5.98.96-3.59-49.15-3.99-52.39-.35-2.81-3.27-6.42-2.65-8.52Z"/>
      <path class="cls-7" d="M80.76,259.98c-1.22.65-3.92,6.96-6.29,14-2.37,7.04-1.54,8.66-2.85,12.34-1.31,3.68-2.25,4.67-2.25,4.67l1.42.36s2.61-4.79,2.89-7.87c.28-3.09,2.76-12.26,3.77-14.73,1.02-2.47,2.84-5.26,2.52-5.24-.32.01.79-3.51.79-3.51Z"/>
      <path class="cls-3" d="M195.91,182.86s13.01,4.05,20.3,6.34c18.49,5.81,33.9,30.98,39.23,38.78,3.72,5.44,28.03,38.06,24.07,51.78-2.76,9.59-33.05,22.41-33.05,22.41l-14.59-24.95,11.09-2.6s-7.44-14.88-14.88-24.76c-2.79-3.7-12.04-16.41-12.04-16.41l-19.58-47.03-.55-3.56Z"/>
      <path class="cls-11" d="M166.09,121.16c-4,0-7.23,4.95-7.23,11.07s3.24,11.07,7.23,11.07,7.23-4.95,7.23-11.07-3.24-11.07-7.23-11.07ZM165.05,133.79c-1.19,0-2.15-1.88-2.15-4.2s.96-4.2,2.15-4.2,2.15,1.88,2.15,4.2-.96,4.2-2.15,4.2Z"/>
    </g>
  </g>
</svg>