<?xml version="1.0" encoding="UTF-8"?>
<svg id="Layer_2" data-name="Layer 2" xmlns="http://www.w3.org/2000/svg" viewBox="0 0 891.37 354.17">
  <defs>
    <style>
      .cls-1 {
        fill: #fff;
      }
    </style>
  </defs>
  <g id="Layer_1-2" data-name="Layer 1">
    <path class="cls-1" d="M891.37,289.99c0-35.45-28.74-64.19-64.19-64.19-9.15,0-17.83,1.94-25.71,5.39-8.71-48.95-51.39-86.15-102.85-86.15-2.83,0-5.6.2-8.37.42,2.48-6.8,3.91-14.1,3.91-21.76,0-35.07-28.43-63.5-63.5-63.5-15.98,0-30.54,5.94-41.7,15.68C556.96,30.03,503.84,0,443.68,0c-81.61,0-150.28,55.22-170.8,130.32-11.63-14.75-29.62-24.26-49.86-24.26-32.21,0-58.75,24.01-62.88,55.09-16.11-10.14-35.13-16.1-55.57-16.1C46.82,145.04,0,191.86,0,249.61s45.29,102.89,101.7,104.42l-.02.14h725.51c5.87,0,10.24-.51,13.46-1.44,28.99-6.19,50.73-31.92,50.73-62.75Z"/>
  </g>
</svg>