<?xml version="1.0" encoding="UTF-8"?>
<svg id="Layer_2" data-name="Layer 2" xmlns="http://www.w3.org/2000/svg" viewBox="0 0 904.16 467.67">
  <defs>
    <style>
      .cls-1 {
        fill: #fff;
      }
    </style>
  </defs>
  <g id="Layer_1-2" data-name="Layer 1">
    <path class="cls-1" d="M138.07,191.52c21.28,0,41.36,4.96,59.36,13.55C211.61,89.51,310.04,0,429.44,0c79.44,0,149.59,39.65,191.84,100.21,14.74-12.86,33.96-20.71,55.06-20.71,46.31,0,83.85,37.54,83.85,83.85,0,10.11-1.88,19.76-5.16,28.73,3.66-.29,7.32-.56,11.05-.56,76.26,0,138.07,61.82,138.07,138.07,0,76.26-61.82,138.07-138.07,138.07H138.07C61.82,467.67,0,405.85,0,329.59c0-76.26,61.82-138.07,138.07-138.07Z"/>
  </g>
</svg>