<?xml version="1.0" encoding="UTF-8"?>
<svg id="Layer_2" data-name="Layer 2" xmlns="http://www.w3.org/2000/svg" xmlns:xlink="http://www.w3.org/1999/xlink" viewBox="0 0 382.82 188.41">
  <defs>
    <style>
      .cls-1 {
        fill: url(#linear-gradient);
      }
    </style>
    <linearGradient id="linear-gradient" x1="191.41" y1="400.78" x2="191.41" y2="-21.72" gradientUnits="userSpaceOnUse">
      <stop offset=".37" stop-color="#65acdf"/>
      <stop offset=".93" stop-color="#fff"/>
    </linearGradient>
  </defs>
  <g id="Layer_1-2" data-name="Layer 1">
    <path class="cls-1" d="M324.36,77.16c-9.01,0-17.51,2-25.13,5.46C293.22,36.06,251.55,0,201,0c-33.64,0-63.33,15.97-81.23,40.37-6.24-5.18-14.38-8.34-23.31-8.34-19.61,0-35.5,15.12-35.5,33.78,0,4.07.8,7.96,2.19,11.58-1.55-.12-3.1-.22-4.68-.22C26.17,77.16,0,102.06,0,132.79s26.17,55.63,58.46,55.63h265.9c32.29,0,58.46-24.91,58.46-55.63s-26.17-55.63-58.46-55.63Z"/>
  </g>
</svg>