<?xml version="1.0" encoding="UTF-8"?>
<svg id="Layer_2" data-name="Layer 2" xmlns="http://www.w3.org/2000/svg" xmlns:xlink="http://www.w3.org/1999/xlink" viewBox="0 0 277.28 122.27">
  <defs>
    <style>
      .cls-1 {
        fill: url(#linear-gradient);
      }
    </style>
    <linearGradient id="linear-gradient" x1="138.64" y1="153.97" x2="138.64" y2="-51.49" gradientUnits="userSpaceOnUse">
      <stop offset="0" stop-color="#65acdf"/>
      <stop offset=".66" stop-color="#fff"/>
    </linearGradient>
  </defs>
  <g id="Layer_1-2" data-name="Layer 1">
    <path class="cls-1" d="M277.28,86.17c0-19.94-16.16-36.1-36.1-36.1-7.06,0-13.62,2.06-19.19,5.56-1.42-10.73-10.59-19.02-21.71-19.02-6.99,0-13.2,3.28-17.21,8.37C175.99,19.06,152.28,0,124.11,0c-20.77,0-39.11,10.37-50.16,26.2-3.85-3.36-8.88-5.41-14.39-5.41-12.11,0-21.92,9.81-21.92,21.92,0,2.64.49,5.17,1.35,7.51-.96-.08-1.91-.15-2.89-.15C16.16,50.07,0,66.23,0,86.17s16.16,36.1,36.1,36.1h206.08v-.05c19.47-.53,35.1-16.45,35.1-36.05Z"/>
  </g>
</svg>