<?xml version="1.0" encoding="UTF-8"?>
<svg id="Layer_2" data-name="Layer 2" xmlns="http://www.w3.org/2000/svg" viewBox="0 0 853.54 156.98">
  <defs>
    <style>
      .cls-1 {
        fill: #243b78;
      }

      .cls-2 {
        fill: #fff;
      }
    </style>
  </defs>
  <g id="Layer_1-2" data-name="Layer 1">
    <g>
      <rect class="cls-1" x="0" y="0" width="853.54" height="156.98" rx="78.49" ry="78.49"/>
      <g>
        <path class="cls-2" d="M256.89,62.49v6.43h-9.63v25.07h-7.38v-25.07h-9.58v-6.43h26.6Z"/>
        <path class="cls-2" d="M273.22,72.64c1.77.92,3.13,2.21,4.07,3.87.95,1.67,1.42,3.61,1.42,5.83,0,.72-.08,1.61-.23,2.66h-16.33c.21,1.14.83,2.06,1.85,2.77,1.02.71,2.32,1.06,3.92,1.06,1.11,0,2.19-.17,3.24-.5s1.95-.79,2.7-1.4l3.69,3.96c-1.26,1.17-2.75,2.07-4.48,2.7-1.73.63-3.56.95-5.51.95-2.58,0-4.82-.47-6.71-1.42-1.89-.94-3.35-2.29-4.37-4.03-1.02-1.74-1.53-3.79-1.53-6.17s.5-4.3,1.51-6.07c1-1.77,2.41-3.14,4.21-4.12,1.8-.97,3.88-1.46,6.25-1.46s4.53.46,6.3,1.37ZM263.71,77.92c-.88.72-1.39,1.73-1.51,3.02h9.81c-.09-1.29-.56-2.29-1.42-3.02-.85-.72-2-1.08-3.44-1.08s-2.56.36-3.44,1.08Z"/>
        <path class="cls-2" d="M316.38,73.74c1.62,1.65,2.43,3.92,2.43,6.79v13.46h-7.07v-12.55c0-1.32-.31-2.35-.92-3.08-.62-.73-1.48-1.1-2.59-1.1-1.23,0-2.21.42-2.92,1.26-.72.84-1.08,1.95-1.08,3.33v12.15h-7.02v-12.55c0-1.32-.3-2.35-.9-3.08-.6-.73-1.46-1.1-2.57-1.1-1.23,0-2.21.42-2.95,1.26-.74.84-1.1,1.95-1.1,3.33v12.15h-7.06v-22.23h6.12l.4,2.48c.78-.96,1.72-1.69,2.81-2.21,1.09-.51,2.27-.76,3.53-.76,1.44,0,2.73.31,3.87.92,1.14.62,2.04,1.46,2.7,2.54,1.8-2.31,4.35-3.46,7.65-3.46,2.82,0,5.04.83,6.66,2.47Z"/>
        <path class="cls-2" d="M343.33,72.77c1.62.98,2.88,2.34,3.78,4.1.9,1.75,1.35,3.76,1.35,6.01s-.45,4.25-1.35,6.01-2.16,3.12-3.78,4.09c-1.62.98-3.46,1.46-5.53,1.46-2.76,0-5.06-.87-6.89-2.61v11.79h-7.06v-31.86h6.12l.45,2.61c1.86-2.04,4.32-3.06,7.38-3.06,2.07,0,3.91.49,5.53,1.46ZM339.96,86.95c.99-1.03,1.49-2.39,1.49-4.07s-.5-3.04-1.49-4.07c-.99-1.04-2.26-1.55-3.82-1.55s-2.83.53-3.8,1.58c-.98,1.05-1.46,2.4-1.46,4.05s.49,3,1.46,4.05c.97,1.05,2.24,1.58,3.8,1.58s2.83-.52,3.82-1.55Z"/>
        <path class="cls-2" d="M356.94,93.02c-1.85-.97-3.26-2.33-4.25-4.07-.99-1.74-1.49-3.76-1.49-6.08s.5-4.33,1.49-6.08c.99-1.74,2.41-3.1,4.25-4.07,1.84-.97,4-1.46,6.46-1.46s4.62.49,6.48,1.46c1.86.98,3.29,2.33,4.27,4.07.99,1.74,1.49,3.77,1.49,6.08s-.5,4.34-1.49,6.08c-.99,1.74-2.42,3.1-4.27,4.07-1.86.97-4.02,1.46-6.48,1.46s-4.61-.49-6.46-1.46ZM367.18,86.92c.96-1.05,1.44-2.4,1.44-4.05s-.48-3-1.44-4.05c-.96-1.05-2.22-1.58-3.78-1.58s-2.78.53-3.73,1.58c-.96,1.05-1.44,2.4-1.44,4.05s.48,3,1.44,4.05c.96,1.05,2.2,1.58,3.73,1.58s2.82-.52,3.78-1.58Z"/>
        <path class="cls-2" d="M379.89,80.76c-.76-.72-1.15-1.63-1.15-2.74s.38-2.03,1.15-2.75c.77-.72,1.75-1.08,2.95-1.08s2.14.36,2.9,1.08c.76.72,1.15,1.63,1.15,2.75s-.38,2.02-1.15,2.74c-.76.72-1.73,1.08-2.9,1.08s-2.18-.36-2.95-1.08ZM379.89,93.36c-.76-.72-1.15-1.63-1.15-2.75s.38-2.03,1.15-2.75c.77-.72,1.75-1.08,2.95-1.08s2.14.36,2.9,1.08,1.15,1.64,1.15,2.75-.38,2.03-1.15,2.75-1.73,1.08-2.9,1.08-2.18-.36-2.95-1.08Z"/>
        <path class="cls-2" d="M423.18,74.87c1.75.84,3.11,2.03,4.07,3.58.96,1.55,1.44,3.32,1.44,5.33,0,2.13-.56,4-1.69,5.62s-2.7,2.87-4.72,3.76c-2.03.88-4.37,1.33-7.04,1.33s-5.08-.44-7.13-1.3c-2.06-.87-3.64-2.12-4.75-3.74-1.11-1.62-1.67-3.49-1.67-5.62v-11.12c0-2.13.55-4,1.67-5.62,1.11-1.62,2.67-2.87,4.68-3.76,2.01-.88,4.33-1.33,6.98-1.33,4.11,0,7.3.83,9.58,2.5,2.28,1.67,3.43,3.98,3.46,6.95h-7.33c-.09-1.02-.65-1.82-1.67-2.41-1.02-.58-2.36-.88-4-.88-1.74,0-3.15.43-4.23,1.28-1.08.86-1.62,1.97-1.62,3.35v3.15c.96-.75,2.13-1.33,3.51-1.73,1.38-.41,2.85-.61,4.41-.61,2.28,0,4.3.42,6.05,1.26ZM419.56,86.9c1.11-.79,1.67-1.84,1.67-3.13s-.56-2.34-1.67-3.15c-1.11-.81-2.57-1.21-4.37-1.21s-3.29.4-4.39,1.19c-1.09.8-1.64,1.85-1.64,3.17s.55,2.37,1.64,3.15c1.09.78,2.56,1.17,4.39,1.17s3.25-.4,4.37-1.19Z"/>
        <path class="cls-2" d="M439.43,92.91c-2.15-1.14-3.8-2.75-4.95-4.84-1.16-2.08-1.73-4.52-1.73-7.31v-4.95c0-2.79.58-5.23,1.73-7.31,1.15-2.08,2.8-3.7,4.95-4.84,2.14-1.14,4.66-1.71,7.54-1.71s5.35.57,7.49,1.71c2.14,1.14,3.79,2.75,4.95,4.84s1.73,4.52,1.73,7.31v4.95c0,2.79-.58,5.23-1.73,7.31-1.16,2.09-2.8,3.7-4.95,4.84-2.15,1.14-4.64,1.71-7.49,1.71s-5.39-.57-7.54-1.71ZM451.89,86.07c1.21-1.32,1.82-3.09,1.82-5.31v-4.95c0-2.25-.6-4.03-1.8-5.33-1.2-1.3-2.85-1.96-4.95-1.96s-3.75.65-4.95,1.96c-1.2,1.31-1.8,3.08-1.8,5.33v4.95c0,2.25.6,4.03,1.8,5.33s2.85,1.96,4.95,1.96,3.71-.66,4.93-1.98Z"/>
        <path class="cls-2" d="M474.69,91.61l2.7-4.86c1.08.66,2.33,1.17,3.76,1.53,1.42.36,2.84.54,4.25.54,1.95,0,2.92-.52,2.92-1.58,0-.54-.27-.95-.81-1.21-.54-.27-1.44-.45-2.7-.54-2.82-.15-5.06-.86-6.73-2.12s-2.5-2.91-2.5-4.95c0-2.22.9-3.98,2.7-5.29s4.23-1.96,7.29-1.96c1.74,0,3.4.21,4.97.63s2.93,1,4.07,1.75l-2.75,4.72c-1.68-.96-3.67-1.44-5.98-1.44s-3.42.54-3.42,1.62c0,.45.23.8.7,1.04.46.24,1.25.42,2.36.54,3.18.24,5.6.96,7.27,2.16,1.67,1.2,2.5,2.88,2.5,5.04,0,2.28-.92,4.07-2.74,5.38-1.83,1.3-4.37,1.96-7.61,1.96-3.93,0-7.35-.99-10.26-2.97Z"/>
        <path class="cls-2" d="M515.77,72.64c1.77.92,3.13,2.21,4.07,3.87.95,1.67,1.42,3.61,1.42,5.83,0,.72-.08,1.61-.23,2.66h-16.33c.21,1.14.83,2.06,1.85,2.77,1.02.71,2.32,1.06,3.92,1.06,1.11,0,2.19-.17,3.24-.5s1.95-.79,2.7-1.4l3.69,3.96c-1.26,1.17-2.75,2.07-4.48,2.7-1.73.63-3.56.95-5.51.95-2.58,0-4.82-.47-6.71-1.42-1.89-.94-3.35-2.29-4.37-4.03-1.02-1.74-1.53-3.79-1.53-6.17s.5-4.3,1.51-6.07c1-1.77,2.41-3.14,4.21-4.12,1.8-.97,3.88-1.46,6.25-1.46s4.53.46,6.3,1.37ZM506.25,77.92c-.88.72-1.39,1.73-1.51,3.02h9.81c-.09-1.29-.56-2.29-1.42-3.02-.85-.72-2-1.08-3.44-1.08s-2.56.36-3.44,1.08Z"/>
        <path class="cls-2" d="M547.16,93.2c.82,1.21,1.24,2.62,1.24,4.21,0,1.86-.51,3.5-1.53,4.93-1.02,1.42-2.46,2.52-4.32,3.29-1.86.76-4.02,1.15-6.48,1.15s-4.5-.39-6.3-1.17c-1.8-.78-3.19-1.89-4.16-3.33-.97-1.44-1.46-3.11-1.46-5,0-.48.01-.84.04-1.08h6.79c-.06,1.47.35,2.61,1.24,3.42s2.17,1.21,3.85,1.21c1.5,0,2.71-.34,3.65-1.01.93-.67,1.39-1.57,1.39-2.68s-.43-2.02-1.28-2.63c-.86-.61-2.08-.92-3.67-.92-2.46,0-4.61-.46-6.46-1.39-1.85-.93-3.27-2.24-4.28-3.94-1-1.69-1.51-3.67-1.51-5.92s.52-4.09,1.55-5.78c1.04-1.69,2.48-3.01,4.32-3.96s3.95-1.42,6.32-1.42c1.83,0,3.51.36,5.04,1.08l2.61-3.24,5.17,3.73-2.97,3.46c1.5,1.71,2.25,3.75,2.25,6.12,0,1.65-.4,3.17-1.19,4.57-.8,1.4-1.91,2.54-3.35,3.44,1.5.69,2.66,1.64,3.49,2.86ZM539.89,86.16c.96-.96,1.44-2.23,1.44-3.83s-.47-2.86-1.42-3.8c-.95-.95-2.21-1.42-3.8-1.42s-2.82.47-3.78,1.42c-.96.94-1.44,2.21-1.44,3.8s.48,2.83,1.44,3.8c.96.98,2.22,1.46,3.78,1.46s2.82-.48,3.78-1.44Z"/>
        <path class="cls-2" d="M575.12,71.76v22.23h-6.12l-.45-2.57c-.84.99-1.87,1.75-3.08,2.27-1.21.53-2.54.79-3.98.79-2.73,0-4.91-.9-6.52-2.7-1.62-1.8-2.43-4.29-2.43-7.47v-12.56h7.07v12.15c0,1.44.35,2.57,1.06,3.38.7.81,1.67,1.21,2.9,1.21,1.35,0,2.44-.47,3.26-1.42.82-.95,1.24-2.17,1.24-3.67v-11.66h7.06Z"/>
        <path class="cls-2" d="M600.75,73.96c1.63,1.8,2.45,4.29,2.45,7.47v12.55h-7.06v-12.15c0-1.44-.36-2.56-1.08-3.38-.72-.81-1.71-1.21-2.97-1.21-1.38,0-2.49.47-3.33,1.4-.84.93-1.26,2.14-1.26,3.64v11.7h-7.06v-22.23h6.12l.45,2.61c.87-.99,1.91-1.75,3.13-2.29s2.56-.81,4.03-.81c2.76,0,4.96.9,6.59,2.7Z"/>
        <path class="cls-2" d="M631.55,62.49v31.5h-6.12l-.45-2.66c-1.89,2.07-4.35,3.11-7.38,3.11-2.07,0-3.91-.49-5.51-1.46-1.61-.97-2.86-2.34-3.76-4.09-.9-1.75-1.35-3.76-1.35-6.01s.45-4.25,1.35-6.01c.9-1.76,2.15-3.12,3.76-4.1,1.6-.97,3.44-1.46,5.51-1.46,2.73,0,5.02.85,6.89,2.56v-11.38h7.06ZM623.09,86.95c.99-1.03,1.49-2.39,1.49-4.07s-.5-3.04-1.49-4.07-2.27-1.55-3.83-1.55-2.83.53-3.8,1.58c-.98,1.05-1.46,2.4-1.46,4.05s.49,3,1.46,4.05c.97,1.05,2.24,1.58,3.8,1.58s2.83-.52,3.83-1.55Z"/>
        <path class="cls-2" d="M641.39,93.02c-1.85-.97-3.26-2.33-4.25-4.07-.99-1.74-1.49-3.76-1.49-6.08s.5-4.33,1.49-6.08c.99-1.74,2.41-3.1,4.25-4.07,1.84-.97,4-1.46,6.46-1.46s4.62.49,6.48,1.46c1.86.98,3.29,2.33,4.27,4.07.99,1.74,1.49,3.77,1.49,6.08s-.5,4.34-1.49,6.08c-.99,1.74-2.42,3.1-4.27,4.07-1.86.97-4.02,1.46-6.48,1.46s-4.61-.49-6.46-1.46ZM651.62,86.92c.96-1.05,1.44-2.4,1.44-4.05s-.48-3-1.44-4.05c-.96-1.05-2.22-1.58-3.78-1.58s-2.78.53-3.73,1.58c-.96,1.05-1.44,2.4-1.44,4.05s.48,3,1.44,4.05c.96,1.05,2.2,1.58,3.73,1.58s2.82-.52,3.78-1.58Z"/>
        <path class="cls-2" d="M662.29,91.61l2.7-4.86c1.08.66,2.33,1.17,3.76,1.53,1.42.36,2.84.54,4.25.54,1.95,0,2.92-.52,2.92-1.58,0-.54-.27-.95-.81-1.21-.54-.27-1.44-.45-2.7-.54-2.82-.15-5.06-.86-6.73-2.12s-2.5-2.91-2.5-4.95c0-2.22.9-3.98,2.7-5.29s4.23-1.96,7.29-1.96c1.74,0,3.4.21,4.97.63s2.93,1,4.07,1.75l-2.75,4.72c-1.68-.96-3.67-1.44-5.98-1.44s-3.42.54-3.42,1.62c0,.45.23.8.7,1.04.46.24,1.25.42,2.36.54,3.18.24,5.6.96,7.27,2.16,1.67,1.2,2.5,2.88,2.5,5.04,0,2.28-.92,4.07-2.74,5.38-1.83,1.3-4.37,1.96-7.61,1.96-3.93,0-7.35-.99-10.26-2.97Z"/>
      </g>
      <g>
        <path class="cls-2" d="M109.67,47.8v3.52c4.66.58,9.07,2.34,13.13,4.61l1.51-1.98c-.61-1.1-3.51-2.05-3.13-3.44.16-.59,4.32-6.16,4.78-6.37.3-.14.59-.21.93-.15l11.95,8.7c.29.52.19,1.09,0,1.62-.13.36-4.01,5.53-4.31,5.73-1.49.99-3.05-1.38-4.37-1.9l-1.47,2.26c16.61,14.94,15.74,41.6-1.79,55.52-17.25,13.69-42.56,9.23-53.98-9.51-9.08-14.89-6.32-34.43,6.61-46.01l-1.47-2.27c-1.31.63-2.83,2.92-4.37,1.91-.3-.2-4.17-5.39-4.31-5.73-.21-.52-.29-1.11,0-1.62l11.95-8.69,1.4.36c.53,1.44,4.65,5.48,4.31,6.71s-2.48,1.77-3.13,2.88l1.51,1.98c4.05-2.28,8.48-3.99,13.12-4.61v-3.52s-5.82,0-5.82,0c-.34,0-.64-.85-.69-1.21-.49-3.67.4-8.43,0-12.23.18-.94,1.54-.91,2.3-.96,5.45-.37,14.44-.44,19.84,0,1.03.08,1.9.07,2.04,1.22.28,2.26.3,9.74,0,11.97-.05.36-.35,1.21-.69,1.21h-5.84ZM113.74,36.13h-19.27v8.96h19.27v-8.96ZM83.88,50.77c.22-.33-2.12-3.31-2.57-3.79l-9.09,6.92,2.57,3.39,9.09-6.52ZM124.33,50.77l9.09,6.52,2.57-3.39-9.09-6.92c-.35.59-2.82,3.41-2.57,3.78ZM107.23,47.8h-6.24l.14,3.26c1.98-.41,4.14-.45,6.1,0v-3.26ZM100.39,53.58c-20.11,1.83-33.82,21.96-29.4,41.46,6.21,27.37,42.1,35.73,59.58,13.69,18.94-23.88.03-57.9-30.18-55.15ZM80.39,56.25c-.29.49.74,1.81,1.22,2.1l1.44-.95-1.48-2-1.19.85ZM126.64,55.4l-1.49,2.02,1.45.93,1.53-1.74-1.49-1.22Z"/>
        <path class="cls-2" d="M101.75,58.46c23.07-1.92,38.82,22.78,27.61,43.08-9.83,17.79-35.27,19.89-47.9,3.92-14.37-18.17-2.69-45.09,20.29-47ZM100.93,61.18c-10.96,1.02-20.48,10.1-22.66,20.76-4.53,22.12,18.95,39.46,38.74,28.42,24.67-13.76,13.23-51.91-16.07-49.19Z"/>
        <path class="cls-2" d="M108.22,92.21c-5.86,5.76-14.68-3.33-8.57-9.25,5.65-3.27,11.12-8.36,16.72-11.5,1.45-.81,2.7-.54,2.41,1.31-3.29,5.51-5.8,11.81-9.06,17.28-.36.6-1.03,1.71-1.5,2.16ZM113.74,76.57l-12.63,8.68c-3.22,3.76,2.08,8.2,5.45,4.91l7.18-13.58Z"/>
      </g>
    </g>
  </g>
</svg>