<?xml version="1.0" encoding="UTF-8"?>
<svg id="Layer_2" data-name="Layer 2" xmlns="http://www.w3.org/2000/svg" viewBox="0 0 853.54 156.98">
  <defs>
    <style>
      .cls-1 {
        fill: #243b78;
      }

      .cls-2 {
        fill: #fff;
      }
    </style>
  </defs>
  <g id="Layer_1-2" data-name="Layer 1">
    <g>
      <rect class="cls-1" x="0" y="0" width="853.54" height="156.98" rx="78.49" ry="78.49"/>
      <g>
        <path class="cls-2" d="M252.02,67.39l-2.34-5.67h-15.52l-2.34,5.67h-7.88l14.13-31.5h7.88l14.04,31.5h-7.97ZM241.98,42.96l-5.18,12.42h10.26l-5.08-12.42Z"/>
        <path class="cls-2" d="M281.8,46.17c1.62.98,2.88,2.34,3.78,4.1.9,1.75,1.35,3.76,1.35,6.01s-.45,4.25-1.35,6.01-2.16,3.12-3.78,4.09c-1.62.98-3.46,1.46-5.53,1.46-3.03,0-5.49-1.04-7.38-3.11l-.45,2.66h-6.12v-31.5h7.06v11.38c1.86-1.71,4.16-2.56,6.89-2.56,2.07,0,3.91.49,5.53,1.46ZM278.43,60.35c.99-1.03,1.49-2.39,1.49-4.07s-.5-3.04-1.49-4.07c-.99-1.04-2.26-1.55-3.82-1.55s-2.83.53-3.8,1.58c-.98,1.05-1.46,2.4-1.46,4.05s.49,3,1.46,4.05c.97,1.05,2.24,1.58,3.8,1.58s2.83-.52,3.82-1.55Z"/>
        <path class="cls-2" d="M306.65,45.23c1.02.38,1.9.92,2.65,1.64l-2.97,5.17c-.63-.39-1.21-.67-1.75-.86-.54-.18-1.11-.27-1.71-.27-1.5,0-2.69.48-3.55,1.44-.87.96-1.31,2.37-1.31,4.23v10.8h-7.06v-22.23h6.17l.54,2.79c1.44-2.19,3.42-3.28,5.94-3.28,1.02,0,2.04.19,3.06.56Z"/>
        <path class="cls-2" d="M328.11,46.04c1.77.92,3.13,2.21,4.07,3.87.95,1.67,1.42,3.61,1.42,5.83,0,.72-.08,1.61-.23,2.66h-16.33c.21,1.14.83,2.06,1.85,2.77,1.02.71,2.32,1.06,3.92,1.06,1.11,0,2.19-.17,3.24-.5s1.95-.79,2.7-1.4l3.69,3.96c-1.26,1.17-2.75,2.07-4.48,2.7-1.73.63-3.56.95-5.51.95-2.58,0-4.82-.47-6.71-1.42-1.89-.94-3.35-2.29-4.37-4.03-1.02-1.74-1.53-3.79-1.53-6.17s.5-4.3,1.51-6.07c1-1.77,2.41-3.14,4.21-4.12,1.8-.97,3.88-1.46,6.25-1.46s4.53.46,6.3,1.37ZM318.59,51.33c-.88.72-1.39,1.73-1.51,3.02h9.81c-.09-1.29-.56-2.29-1.42-3.02-.85-.72-2-1.08-3.44-1.08s-2.56.36-3.44,1.08Z"/>
        <path class="cls-2" d="M371.35,45.16v22.23h-6.12l-.45-2.66c-1.89,2.07-4.35,3.11-7.38,3.11-2.07,0-3.91-.49-5.51-1.46-1.61-.97-2.86-2.34-3.76-4.09-.9-1.75-1.35-3.76-1.35-6.01s.45-4.25,1.35-6.01c.9-1.76,2.15-3.12,3.76-4.1,1.6-.97,3.44-1.46,5.51-1.46,1.5,0,2.88.26,4.14.79,1.26.53,2.34,1.28,3.24,2.27l.45-2.61h6.12ZM362.89,60.35c.99-1.03,1.49-2.39,1.49-4.07s-.5-3.04-1.49-4.07-2.27-1.55-3.83-1.55-2.83.53-3.8,1.58c-.98,1.05-1.46,2.4-1.46,4.05s.49,3,1.46,4.05c.97,1.05,2.24,1.58,3.8,1.58s2.83-.52,3.83-1.55Z"/>
        <path class="cls-2" d="M406.68,46.17c1.62.98,2.88,2.34,3.78,4.1.9,1.75,1.35,3.76,1.35,6.01s-.45,4.25-1.35,6.01-2.16,3.12-3.78,4.09c-1.62.98-3.46,1.46-5.53,1.46-3.03,0-5.49-1.04-7.38-3.11l-.45,2.66h-6.12v-31.5h7.06v11.38c1.86-1.71,4.16-2.56,6.89-2.56,2.07,0,3.91.49,5.53,1.46ZM403.3,60.35c.99-1.03,1.49-2.39,1.49-4.07s-.5-3.04-1.49-4.07c-.99-1.04-2.26-1.55-3.82-1.55s-2.83.53-3.8,1.58c-.98,1.05-1.46,2.4-1.46,4.05s.49,3,1.46,4.05c.97,1.05,2.24,1.58,3.8,1.58s2.83-.52,3.82-1.55Z"/>
        <path class="cls-2" d="M420.29,66.42c-1.85-.97-3.26-2.33-4.25-4.07-.99-1.74-1.49-3.76-1.49-6.08s.5-4.33,1.49-6.08c.99-1.74,2.41-3.1,4.25-4.07,1.84-.97,4-1.46,6.46-1.46s4.62.49,6.48,1.46c1.86.98,3.29,2.33,4.27,4.07.99,1.74,1.49,3.77,1.49,6.08s-.5,4.34-1.49,6.08c-.99,1.74-2.42,3.1-4.27,4.07-1.86.97-4.02,1.46-6.48,1.46s-4.61-.49-6.46-1.46ZM430.53,60.33c.96-1.05,1.44-2.4,1.44-4.05s-.48-3-1.44-4.05c-.96-1.05-2.22-1.58-3.78-1.58s-2.78.53-3.73,1.58c-.96,1.05-1.44,2.4-1.44,4.05s.48,3,1.44,4.05c.96,1.05,2.2,1.58,3.73,1.58s2.82-.52,3.78-1.58Z"/>
        <path class="cls-2" d="M447.56,66.47c-1.85-.94-3.27-2.29-4.28-4.03-1-1.74-1.51-3.78-1.51-6.12s.51-4.34,1.53-6.1c1.02-1.75,2.45-3.12,4.28-4.09,1.83-.97,3.94-1.46,6.34-1.46,1.65,0,3.22.29,4.72.88s2.84,1.45,4.01,2.59l-3.92,4.27c-1.26-1.17-2.75-1.75-4.46-1.75-1.62,0-2.94.52-3.96,1.55-1.02,1.04-1.53,2.39-1.53,4.07s.5,3.04,1.51,4.07c1,1.04,2.33,1.55,3.98,1.55,1.83,0,3.39-.64,4.68-1.93l4,4.23c-2.49,2.46-5.46,3.69-8.91,3.69-2.49,0-4.66-.47-6.5-1.42Z"/>
        <path class="cls-2" d="M489.07,45.16v22.23h-6.12l-.45-2.66c-1.89,2.07-4.35,3.11-7.38,3.11-2.07,0-3.91-.49-5.51-1.46-1.61-.97-2.86-2.34-3.76-4.09-.9-1.75-1.35-3.76-1.35-6.01s.45-4.25,1.35-6.01c.9-1.76,2.15-3.12,3.76-4.1,1.6-.97,3.44-1.46,5.51-1.46,1.5,0,2.88.26,4.14.79,1.26.53,2.34,1.28,3.24,2.27l.45-2.61h6.12ZM480.61,60.35c.99-1.03,1.49-2.39,1.49-4.07s-.5-3.04-1.49-4.07-2.27-1.55-3.83-1.55-2.83.53-3.8,1.58c-.98,1.05-1.46,2.4-1.46,4.05s.49,3,1.46,4.05c.97,1.05,2.24,1.58,3.8,1.58s2.83-.52,3.83-1.55Z"/>
        <path class="cls-2" d="M524.4,46.17c1.62.98,2.88,2.34,3.78,4.1.9,1.75,1.35,3.76,1.35,6.01s-.45,4.25-1.35,6.01-2.16,3.12-3.78,4.09c-1.62.98-3.46,1.46-5.53,1.46-2.76,0-5.06-.87-6.89-2.61v11.79h-7.06v-31.86h6.12l.45,2.61c1.86-2.04,4.32-3.06,7.38-3.06,2.07,0,3.91.49,5.53,1.46ZM521.02,60.35c.99-1.03,1.49-2.39,1.49-4.07s-.5-3.04-1.49-4.07c-.99-1.04-2.26-1.55-3.82-1.55s-2.83.53-3.8,1.58c-.98,1.05-1.46,2.4-1.46,4.05s.49,3,1.46,4.05c.97,1.05,2.24,1.58,3.8,1.58s2.83-.52,3.82-1.55Z"/>
        <path class="cls-2" d="M556.84,45.16v22.23h-6.12l-.45-2.66c-1.89,2.07-4.35,3.11-7.38,3.11-2.07,0-3.91-.49-5.51-1.46-1.61-.97-2.86-2.34-3.76-4.09-.9-1.75-1.35-3.76-1.35-6.01s.45-4.25,1.35-6.01c.9-1.76,2.15-3.12,3.76-4.1,1.6-.97,3.44-1.46,5.51-1.46,1.5,0,2.88.26,4.14.79,1.26.53,2.34,1.28,3.24,2.27l.45-2.61h6.12ZM548.38,60.35c.99-1.03,1.49-2.39,1.49-4.07s-.5-3.04-1.49-4.07-2.27-1.55-3.83-1.55-2.83.53-3.8,1.58c-.98,1.05-1.46,2.4-1.46,4.05s.49,3,1.46,4.05c.97,1.05,2.24,1.58,3.8,1.58s2.83-.52,3.83-1.55Z"/>
        <path class="cls-2" d="M577.86,45.23c1.02.38,1.9.92,2.65,1.64l-2.97,5.17c-.63-.39-1.21-.67-1.75-.86-.54-.18-1.11-.27-1.71-.27-1.5,0-2.69.48-3.55,1.44-.87.96-1.31,2.37-1.31,4.23v10.8h-7.06v-22.23h6.17l.54,2.79c1.44-2.19,3.42-3.28,5.94-3.28,1.02,0,2.04.19,3.06.56Z"/>
        <path class="cls-2" d="M605.62,45.16v22.23h-6.12l-.45-2.66c-1.89,2.07-4.35,3.11-7.38,3.11-2.07,0-3.91-.49-5.51-1.46-1.61-.97-2.86-2.34-3.76-4.09-.9-1.75-1.35-3.76-1.35-6.01s.45-4.25,1.35-6.01c.9-1.76,2.15-3.12,3.76-4.1,1.6-.97,3.44-1.46,5.51-1.46,1.5,0,2.88.26,4.14.79,1.26.53,2.34,1.28,3.24,2.27l.45-2.61h6.12ZM597.16,60.35c.99-1.03,1.49-2.39,1.49-4.07s-.5-3.04-1.49-4.07-2.27-1.55-3.83-1.55-2.83.53-3.8,1.58c-.98,1.05-1.46,2.4-1.46,4.05s.49,3,1.46,4.05c.97,1.05,2.24,1.58,3.8,1.58s2.83-.52,3.83-1.55Z"/>
        <path class="cls-2" d="M238.02,120.47c-1.85-.94-3.27-2.29-4.28-4.03-1-1.74-1.51-3.78-1.51-6.12s.51-4.34,1.53-6.1c1.02-1.75,2.45-3.12,4.28-4.09,1.83-.97,3.94-1.46,6.34-1.46,1.65,0,3.22.29,4.72.88s2.84,1.45,4.01,2.59l-3.92,4.27c-1.26-1.17-2.75-1.75-4.46-1.75-1.62,0-2.94.52-3.96,1.55-1.02,1.04-1.53,2.39-1.53,4.07s.5,3.04,1.51,4.07c1,1.04,2.33,1.55,3.98,1.55,1.83,0,3.39-.64,4.68-1.93l4,4.23c-2.49,2.46-5.46,3.69-8.91,3.69-2.49,0-4.66-.47-6.5-1.42Z"/>
        <path class="cls-2" d="M279.53,99.16v22.23h-6.12l-.45-2.66c-1.89,2.07-4.35,3.11-7.38,3.11-2.07,0-3.91-.49-5.51-1.46-1.61-.97-2.86-2.34-3.76-4.09-.9-1.75-1.35-3.76-1.35-6.01s.45-4.25,1.35-6.01c.9-1.76,2.15-3.12,3.76-4.1,1.6-.97,3.44-1.46,5.51-1.46,1.5,0,2.88.26,4.14.79,1.26.53,2.34,1.28,3.24,2.27l.45-2.61h6.12ZM271.07,114.35c.99-1.03,1.49-2.39,1.49-4.07s-.5-3.04-1.49-4.07-2.27-1.55-3.83-1.55-2.83.53-3.8,1.58c-.98,1.05-1.46,2.4-1.46,4.05s.49,3,1.46,4.05c.97,1.05,2.24,1.58,3.8,1.58s2.83-.52,3.83-1.55Z"/>
        <path class="cls-2" d="M304.33,100.17c1.62.98,2.88,2.34,3.78,4.1.9,1.75,1.35,3.76,1.35,6.01s-.45,4.25-1.35,6.01-2.16,3.12-3.78,4.09c-1.62.98-3.46,1.46-5.53,1.46-2.76,0-5.06-.87-6.89-2.61v11.79h-7.06v-31.86h6.12l.45,2.61c1.86-2.04,4.32-3.06,7.38-3.06,2.07,0,3.91.49,5.53,1.46ZM300.95,114.35c.99-1.03,1.49-2.39,1.49-4.07s-.5-3.04-1.49-4.07c-.99-1.04-2.26-1.55-3.82-1.55s-2.83.53-3.8,1.58c-.98,1.05-1.46,2.4-1.46,4.05s.49,3,1.46,4.05c.97,1.05,2.24,1.58,3.8,1.58s2.83-.52,3.82-1.55Z"/>
        <path class="cls-2" d="M329.17,120.54c-1.74.87-3.71,1.31-5.89,1.31-2.43,0-4.35-.68-5.76-2.05-1.41-1.36-2.11-3.56-2.11-6.59v-8.42h-3.78v-5.62h3.78v-5.53l7.02-.77v6.3h5.54v5.62h-5.54v8.42c0,.9.22,1.57.67,2,.45.44,1.06.65,1.85.65.87,0,1.72-.21,2.56-.63l1.67,5.31Z"/>
        <path class="cls-2" d="M354.64,99.16v22.23h-6.12l-.45-2.57c-.84.99-1.87,1.75-3.08,2.27-1.21.53-2.54.79-3.98.79-2.73,0-4.91-.9-6.52-2.7-1.62-1.8-2.43-4.29-2.43-7.47v-12.56h7.07v12.15c0,1.44.35,2.57,1.06,3.38.7.81,1.67,1.21,2.9,1.21,1.35,0,2.44-.47,3.26-1.42.82-.95,1.24-2.17,1.24-3.67v-11.66h7.06Z"/>
        <path class="cls-2" d="M375.65,99.23c1.02.38,1.9.92,2.65,1.64l-2.97,5.17c-.63-.39-1.21-.67-1.75-.86-.54-.18-1.11-.27-1.71-.27-1.5,0-2.69.48-3.55,1.44-.87.96-1.31,2.37-1.31,4.23v10.8h-7.06v-22.23h6.17l.54,2.79c1.44-2.19,3.42-3.28,5.94-3.28,1.02,0,2.04.19,3.06.56Z"/>
        <path class="cls-2" d="M403.42,99.16v22.23h-6.12l-.45-2.66c-1.89,2.07-4.35,3.11-7.38,3.11-2.07,0-3.91-.49-5.51-1.46-1.61-.97-2.86-2.34-3.76-4.09-.9-1.75-1.35-3.76-1.35-6.01s.45-4.25,1.35-6.01c.9-1.76,2.15-3.12,3.76-4.1,1.6-.97,3.44-1.46,5.51-1.46,1.5,0,2.88.26,4.14.79,1.26.53,2.34,1.28,3.24,2.27l.45-2.61h6.12ZM394.96,114.35c.99-1.03,1.49-2.39,1.49-4.07s-.5-3.04-1.49-4.07-2.27-1.55-3.83-1.55-2.83.53-3.8,1.58c-.98,1.05-1.46,2.4-1.46,4.05s.49,3,1.46,4.05c.97,1.05,2.24,1.58,3.8,1.58s2.83-.52,3.83-1.55Z"/>
        <path class="cls-2" d="M424.43,99.23c1.02.38,1.9.92,2.65,1.64l-2.97,5.17c-.63-.39-1.21-.67-1.75-.86-.54-.18-1.11-.27-1.71-.27-1.5,0-2.69.48-3.55,1.44-.87.96-1.31,2.37-1.31,4.23v10.8h-7.06v-22.23h6.17l.54,2.79c1.44-2.19,3.42-3.28,5.94-3.28,1.02,0,2.04.19,3.06.56Z"/>
        <path class="cls-2" d="M443.4,120.42c-1.85-.97-3.26-2.33-4.25-4.07-.99-1.74-1.49-3.76-1.49-6.08s.5-4.33,1.49-6.08c.99-1.74,2.41-3.1,4.25-4.07,1.84-.97,4-1.46,6.46-1.46s4.62.49,6.48,1.46c1.86.98,3.29,2.33,4.27,4.07.99,1.74,1.49,3.77,1.49,6.08s-.5,4.34-1.49,6.08c-.99,1.74-2.42,3.1-4.27,4.07-1.86.97-4.02,1.46-6.48,1.46s-4.61-.49-6.46-1.46ZM453.64,114.33c.96-1.05,1.44-2.4,1.44-4.05s-.48-3-1.44-4.05c-.96-1.05-2.22-1.58-3.78-1.58s-2.78.53-3.73,1.58c-.96,1.05-1.44,2.4-1.44,4.05s.48,3,1.44,4.05c.96,1.05,2.2,1.58,3.73,1.58s2.82-.52,3.78-1.58Z"/>
        <path class="cls-2" d="M475.06,119.01l2.7-4.86c1.08.66,2.33,1.17,3.76,1.53,1.42.36,2.84.54,4.25.54,1.95,0,2.92-.52,2.92-1.58,0-.54-.27-.95-.81-1.21-.54-.27-1.44-.45-2.7-.54-2.82-.15-5.06-.86-6.73-2.12s-2.5-2.91-2.5-4.95c0-2.22.9-3.98,2.7-5.29s4.23-1.96,7.29-1.96c1.74,0,3.4.21,4.97.63s2.93,1,4.07,1.75l-2.75,4.72c-1.68-.96-3.67-1.44-5.98-1.44s-3.42.54-3.42,1.62c0,.45.23.8.7,1.04.46.24,1.25.42,2.36.54,3.18.24,5.6.96,7.27,2.16,1.67,1.2,2.5,2.88,2.5,5.04,0,2.28-.92,4.07-2.74,5.38-1.83,1.3-4.37,1.96-7.61,1.96-3.93,0-7.35-.99-10.26-2.97Z"/>
        <path class="cls-2" d="M522.44,99.16v22.23h-6.12l-.45-2.66c-1.89,2.07-4.35,3.11-7.38,3.11-2.07,0-3.91-.49-5.51-1.46-1.61-.97-2.86-2.34-3.76-4.09-.9-1.75-1.35-3.76-1.35-6.01s.45-4.25,1.35-6.01c.9-1.76,2.15-3.12,3.76-4.1,1.6-.97,3.44-1.46,5.51-1.46,1.5,0,2.88.26,4.14.79,1.26.53,2.34,1.28,3.24,2.27l.45-2.61h6.12ZM513.98,114.35c.99-1.03,1.49-2.39,1.49-4.07s-.5-3.04-1.49-4.07-2.27-1.55-3.83-1.55-2.83.53-3.8,1.58c-.98,1.05-1.46,2.4-1.46,4.05s.49,3,1.46,4.05c.97,1.05,2.24,1.58,3.8,1.58s2.83-.52,3.83-1.55Z"/>
        <path class="cls-2" d="M547.24,100.17c1.62.98,2.88,2.34,3.78,4.1.9,1.75,1.35,3.76,1.35,6.01s-.45,4.25-1.35,6.01-2.16,3.12-3.78,4.09c-1.62.98-3.46,1.46-5.53,1.46-3.03,0-5.49-1.04-7.38-3.11l-.45,2.66h-6.12v-31.5h7.06v11.38c1.86-1.71,4.16-2.56,6.89-2.56,2.07,0,3.91.49,5.53,1.46ZM543.86,114.35c.99-1.03,1.49-2.39,1.49-4.07s-.5-3.04-1.49-4.07c-.99-1.04-2.26-1.55-3.82-1.55s-2.83.53-3.8,1.58c-.98,1.05-1.46,2.4-1.46,4.05s.49,3,1.46,4.05c.97,1.05,2.24,1.58,3.8,1.58s2.83-.52,3.82-1.55Z"/>
        <path class="cls-2" d="M560.85,120.42c-1.85-.97-3.26-2.33-4.25-4.07-.99-1.74-1.49-3.76-1.49-6.08s.5-4.33,1.49-6.08c.99-1.74,2.41-3.1,4.25-4.07,1.84-.97,4-1.46,6.46-1.46s4.62.49,6.48,1.46c1.86.98,3.29,2.33,4.27,4.07.99,1.74,1.49,3.77,1.49,6.08s-.5,4.34-1.49,6.08c-.99,1.74-2.42,3.1-4.27,4.07-1.86.97-4.02,1.46-6.48,1.46s-4.61-.49-6.46-1.46ZM571.09,114.33c.96-1.05,1.44-2.4,1.44-4.05s-.48-3-1.44-4.05c-.96-1.05-2.22-1.58-3.78-1.58s-2.78.53-3.73,1.58c-.96,1.05-1.44,2.4-1.44,4.05s.48,3,1.44,4.05c.96,1.05,2.2,1.58,3.73,1.58s2.82-.52,3.78-1.58Z"/>
        <path class="cls-2" d="M599.3,99.23c1.02.38,1.9.92,2.65,1.64l-2.97,5.17c-.63-.39-1.21-.67-1.75-.86-.54-.18-1.11-.27-1.71-.27-1.5,0-2.69.48-3.55,1.44-.87.96-1.31,2.37-1.31,4.23v10.8h-7.06v-22.23h6.17l.54,2.79c1.44-2.19,3.42-3.28,5.94-3.28,1.02,0,2.04.19,3.06.56Z"/>
      </g>
      <path class="cls-2" d="M99,50.19c6.36-.22,9.2,3.36,14.01,6.18,1.87,1.1,2.34,1.61,4.48.58,5.08-2.47,7.62-6.79,14.42-6.8,7.21-.01,19.78,9.24,25.48,13.74,2.08,1.64,5.81,4.44,7.47,6.29,1.47,1.64,1.69,2.98.55,4.86-1.52,2.52-5.63,7.11-7.72,9.49-24.41,27.81-56.27,30.63-82.01,2.58-2.79-3.04-7.32-8.08-9.6-11.33-1.31-1.87-1.12-3.94.44-5.59,1.77-1.89,5.06-4.34,7.18-6.01,5.72-4.52,18.1-13.74,25.31-13.99ZM159.55,71.91c-1.28-1.6-3-2.86-4.62-4.13-4.73-3.7-16.76-12.53-22.46-12.8-7.13-.34-10.76,7-16.35,7.19-6.59.23-10-8.08-18.04-7.15-3.99.46-11.88,5.74-15.35,8.17-3.72,2.6-7.27,5.53-10.63,8.58.27.42.55.4.98.44,3.2.35,8.69-.08,12.07-.29,12.31-.77,23.89-3.15,36.42-2.61,8.7.38,17.38,2.21,26.08,2.59,3.95.17,7.94-.12,11.9,0ZM146.65,76.22c-6.06-.56-12.14-1.32-18.21-1.72-10.78-.71-20.79-.4-31.53.57-4.06.37-8.15.9-12.19,1.43,1.5,1.33,3.79,2.08,5.66,2.79,11.83,4.47,22.8,6.84,35.39,4.28,5.25-1.07,16.16-3.93,20.51-6.72.28-.18.51.03.37-.64ZM158.12,76.51c-12.04,5.23-24.31,11.84-37.71,12.9-19.08,1.51-29.97-6.15-46.39-12.67-.28-.11-.88-.47-1.07-.08,8.16,10.83,19.44,21.14,33.03,24.32,19.9,4.65,35.96-5.63,48.55-19.87.35-.4,3.81-4.4,3.58-4.59Z"/>
    </g>
  </g>
</svg>