<?xml version="1.0" encoding="UTF-8"?>
<svg id="Layer_2" data-name="Layer 2" xmlns="http://www.w3.org/2000/svg" viewBox="0 0 716.11 303.17">
  <defs>
    <style>
      .cls-1 {
        fill: #fff;
      }
    </style>
  </defs>
  <g id="Layer_1-2" data-name="Layer 1">
    <g>
      <path class="cls-1" d="M83.67,82.59l-9.16-20.42H25.09l-9.16,20.42h-5.57L46.79,1.39h6.03l36.42,81.2h-5.57ZM49.8,6.84l-22.62,50.34h45.24L49.8,6.84Z"/>
      <path class="cls-1" d="M153.22,4.76c4.06,2.24,7.15,5.38,9.28,9.4,2.13,4.02,3.19,8.62,3.19,13.8s-1.06,9.65-3.19,13.63c-2.13,3.98-5.24,7.1-9.34,9.34-4.1,2.24-8.93,3.36-14.5,3.36h-29.35v28.3h-5.1V1.39h34.45c5.64,0,10.5,1.12,14.56,3.36ZM154.9,43.5c3.87-3.94,5.8-9.16,5.8-15.66s-1.93-11.72-5.8-15.66c-3.87-3.94-9.32-5.92-16.36-5.92h-29.23v43.15h29.23c7.04,0,12.49-1.97,16.36-5.92Z"/>
      <path class="cls-1" d="M241.55,82.59l-9.16-20.42h-49.42l-9.16,20.42h-5.57L204.66,1.39h6.03l36.42,81.2h-5.57ZM207.68,6.84l-22.62,50.34h45.24l-22.62-50.34Z"/>
      <path class="cls-1" d="M321.01,1.39h4.99v81.2h-5.34l-53.48-73.43v73.43h-5.1V1.39h5.57l53.36,73.2V1.39Z"/>
      <path class="cls-1" d="M408.24,1.39h5.1v81.2h-5.1v-39.21h-53.71v39.21h-5.1V1.39h5.1v37.12h53.71V1.39Z"/>
      <path class="cls-1" d="M501.62,82.59l-9.16-20.42h-49.42l-9.16,20.42h-5.57L464.73,1.39h6.03l36.42,81.2h-5.57ZM467.75,6.84l-22.62,50.34h45.24l-22.62-50.34Z"/>
      <path class="cls-1" d="M564.08,78.65c-6.23-3.56-11.08-8.53-14.56-14.91s-5.22-13.63-5.22-21.75,1.74-15.37,5.22-21.75,8.33-11.35,14.56-14.91c6.22-3.56,13.28-5.34,21.17-5.34s14.94,1.78,21.17,5.34c6.22,3.56,11.08,8.53,14.56,14.91s5.22,13.63,5.22,21.75-1.74,15.37-5.22,21.75-8.33,11.35-14.56,14.91c-6.23,3.56-13.28,5.34-21.17,5.34s-14.95-1.78-21.17-5.34ZM603.76,74.41c5.45-3.13,9.7-7.52,12.76-13.17,3.05-5.64,4.58-12.06,4.58-19.26s-1.53-13.61-4.58-19.26c-3.06-5.64-7.31-10.03-12.76-13.17s-11.62-4.7-18.5-4.7-13.05,1.57-18.5,4.7c-5.45,3.13-9.71,7.52-12.76,13.17-3.06,5.65-4.58,12.06-4.58,19.26s1.53,13.61,4.58,19.26c3.05,5.65,7.31,10.03,12.76,13.17,5.45,3.13,11.62,4.7,18.5,4.7s13.05-1.57,18.5-4.7Z"/>
      <path class="cls-1" d="M652.3,79.75c-5.96-2.74-10.6-6.4-13.92-10.96l3.48-3.48c2.63,4.02,6.69,7.31,12.18,9.86,5.49,2.55,11.21,3.83,17.17,3.83,8.2,0,14.67-1.53,19.43-4.58,4.76-3.05,7.13-7.21,7.13-12.47,0-3.32-.83-6.07-2.49-8.24-1.66-2.16-4.45-4.02-8.35-5.57-3.91-1.55-9.49-3.02-16.76-4.41-7.42-1.47-13.28-3.17-17.57-5.1-4.29-1.93-7.41-4.29-9.34-7.08-1.93-2.78-2.9-6.26-2.9-10.44s1.26-7.87,3.77-11.08c2.51-3.21,6.07-5.68,10.67-7.42,4.6-1.74,9.92-2.61,15.95-2.61s11.29.99,16.24,2.96c4.95,1.97,9.12,4.85,12.53,8.64l-3.25,3.6c-2.94-3.32-6.63-5.9-11.08-7.71-4.45-1.82-9.3-2.73-14.56-2.73-7.66,0-13.79,1.49-18.39,4.47-4.6,2.98-6.9,6.94-6.9,11.89,0,3.25.81,5.94,2.44,8.06,1.62,2.13,4.29,3.94,8,5.45,3.71,1.51,8.85,2.92,15.43,4.23,8.12,1.62,14.44,3.4,18.97,5.34,4.52,1.93,7.77,4.29,9.74,7.08,1.97,2.78,2.96,6.3,2.96,10.56,0,6.81-2.84,12.18-8.53,16.12-5.68,3.94-13.4,5.92-23.14,5.92-6.65,0-12.95-1.37-18.91-4.12Z"/>
      <path class="cls-1" d="M19.8,203.15c-7.63-2.5-14.23-6-19.8-10.51l12.24-17.14c8.93,7.01,19.34,10.51,31.25,10.51,5.95,0,10.68-1.01,14.18-3.02,3.5-2.02,5.26-4.75,5.26-8.21,0-3.26-1.63-5.81-4.9-7.63-3.26-1.82-8.45-3.12-15.55-3.89-13.73-1.53-23.78-4.75-30.17-9.65-6.39-4.9-9.58-11.9-9.58-21.02,0-6.14,1.73-11.57,5.18-16.27,3.46-4.7,8.3-8.35,14.54-10.94,6.24-2.59,13.44-3.89,21.6-3.89,7.01,0,13.85,1.01,20.52,3.02,6.67,2.02,12.55,4.85,17.64,8.5l-11.09,16.56c-7.87-5.47-16.56-8.21-26.06-8.21-5.86,0-10.54.96-14.04,2.88-3.51,1.92-5.26,4.51-5.26,7.78s1.51,5.62,4.54,7.34,8.09,3.02,15.19,3.89c13.63,1.54,23.81,4.92,30.53,10.15,6.72,5.23,10.08,12.41,10.08,21.53,0,6.34-1.78,11.93-5.33,16.78-3.55,4.85-8.55,8.59-14.98,11.23-6.43,2.64-13.82,3.96-22.18,3.96s-16.2-1.25-23.83-3.74Z"/>
      <path class="cls-1" d="M177.7,204.59l-7.49-18.14h-49.68l-7.49,18.14h-25.2l45.22-100.8h25.2l44.93,100.8h-25.49ZM145.58,126.4l-16.56,39.74h32.83l-16.27-39.74Z"/>
      <path class="cls-1" d="M296.78,161.61c2.88,4.37,4.32,9.29,4.32,14.76,0,8.83-3.38,15.75-10.15,20.74-6.77,4.99-16.11,7.49-28.01,7.49h-49.82v-100.8h49.82c10.85,0,19.39,2.4,25.63,7.2,6.24,4.8,9.36,11.33,9.36,19.58,0,4.9-1.13,9.19-3.38,12.89-2.26,3.7-5.4,6.5-9.43,8.42,4.9,2.11,8.78,5.35,11.66,9.72ZM236.3,123.23v20.02h27.07c3.74,0,6.62-.86,8.64-2.59,2.02-1.73,3.02-4.18,3.02-7.34s-1.03-5.64-3.1-7.42c-2.07-1.78-4.92-2.66-8.57-2.66h-27.07ZM274.39,181.7c2.35-2.02,3.53-4.8,3.53-8.35s-1.18-6.46-3.53-8.42c-2.35-1.97-5.64-2.95-9.86-2.95h-28.22v22.75h28.22c4.22,0,7.51-1.01,9.86-3.02Z"/>
      <path class="cls-1" d="M337.18,200.49c-8.21-4.37-14.54-10.53-19.01-18.5-4.46-7.97-6.7-17.23-6.7-27.79s2.23-19.82,6.7-27.79c4.46-7.97,10.8-14.13,19.01-18.5,8.21-4.37,17.73-6.55,28.58-6.55s20.38,2.18,28.58,6.55c8.21,4.37,14.54,10.54,19.01,18.5,4.46,7.97,6.7,17.23,6.7,27.79s-2.23,19.82-6.7,27.79c-4.46,7.97-10.8,14.14-19.01,18.5s-17.74,6.55-28.58,6.55-20.38-2.19-28.58-6.55ZM381.82,182.06c4.66-2.64,8.26-6.36,10.8-11.16,2.54-4.8,3.82-10.37,3.82-16.7s-1.27-11.9-3.82-16.7c-2.54-4.8-6.15-8.52-10.8-11.16-4.66-2.64-10.01-3.96-16.06-3.96s-11.38,1.32-15.98,3.96c-4.61,2.64-8.19,6.36-10.73,11.16-2.54,4.8-3.82,10.37-3.82,16.7s1.27,11.9,3.82,16.7c2.54,4.8,6.12,8.52,10.73,11.16,4.61,2.64,9.94,3.96,15.98,3.96s11.4-1.32,16.06-3.96Z"/>
      <path class="cls-1" d="M473.47,171.33h-13.68v33.26h-23.62v-100.8h49.1c7.29,0,13.68,1.42,19.15,4.25,5.47,2.83,9.69,6.84,12.67,12.02,2.97,5.18,4.46,11.14,4.46,17.86,0,7.68-1.99,14.26-5.98,19.73-3.98,5.47-9.63,9.36-16.92,11.66l28.51,35.28h-28.08l-25.63-33.26ZM494.13,127.7c-2.74-2.5-6.6-3.74-11.59-3.74h-22.9v28.37h22.9c5.09,0,8.98-1.22,11.66-3.67,2.69-2.45,4.03-5.93,4.03-10.44s-1.37-8.01-4.1-10.51Z"/>
      <path class="cls-1" d="M563.33,184.72h55.58v19.87h-78.48v-100.8h76.9v19.73h-54v20.45h51.12v19.01h-51.12v21.74Z"/>
      <path class="cls-1" d="M649.8,203.15c-7.63-2.5-14.23-6-19.8-10.51l12.24-17.14c8.93,7.01,19.34,10.51,31.25,10.51,5.95,0,10.68-1.01,14.18-3.02,3.5-2.02,5.26-4.75,5.26-8.21,0-3.26-1.63-5.81-4.9-7.63-3.26-1.82-8.45-3.12-15.55-3.89-13.73-1.53-23.78-4.75-30.17-9.65-6.39-4.9-9.58-11.9-9.58-21.02,0-6.14,1.73-11.57,5.18-16.27,3.46-4.7,8.3-8.35,14.54-10.94,6.24-2.59,13.44-3.89,21.6-3.89,7.01,0,13.85,1.01,20.52,3.02,6.67,2.02,12.55,4.85,17.64,8.5l-11.09,16.56c-7.87-5.47-16.56-8.21-26.06-8.21-5.86,0-10.54.96-14.04,2.88-3.51,1.92-5.26,4.51-5.26,7.78s1.51,5.62,4.54,7.34,8.09,3.02,15.19,3.89c13.63,1.54,23.81,4.92,30.53,10.15,6.72,5.23,10.08,12.41,10.08,21.53,0,6.34-1.78,11.93-5.33,16.78-3.55,4.85-8.55,8.59-14.98,11.23-6.43,2.64-13.82,3.96-22.18,3.96s-16.2-1.25-23.83-3.74Z"/>
      <path class="cls-1" d="M102.04,248.58c4.4,2.32,7.8,5.63,10.21,9.92,2.4,4.29,3.6,9.27,3.6,14.94s-1.2,10.65-3.6,14.94c-2.4,4.29-5.81,7.6-10.21,9.92-4.4,2.32-9.52,3.48-15.35,3.48h-23.25v-56.7h23.25c5.83,0,10.95,1.16,15.35,3.48ZM98.19,285.67c2.92-3.02,4.37-7.1,4.37-12.23,0-3.4-.66-6.36-1.98-8.87-1.32-2.51-3.19-4.45-5.59-5.83-2.4-1.38-5.17-2.07-8.3-2.07h-9.96v33.53h9.96c4.75,0,8.59-1.51,11.5-4.54Z"/>
      <path class="cls-1" d="M137.8,290.61h31.27v11.18h-44.15v-56.7h43.25v11.1h-30.38v11.5h28.75v10.69h-28.75v12.23Z"/>
      <path class="cls-1" d="M236.42,247.56c3.27,1.65,5.79,4.01,7.57,7.09,1.78,3.08,2.67,6.67,2.67,10.77s-.89,7.7-2.67,10.77c-1.78,3.08-4.31,5.44-7.57,7.09-3.27,1.65-7.09,2.47-11.46,2.47h-13.85v16.04h-13.28v-56.7h27.14c4.37,0,8.19.82,11.46,2.47ZM230.99,271.82c1.65-1.57,2.47-3.67,2.47-6.32s-.82-4.75-2.47-6.32c-1.65-1.57-3.88-2.35-6.68-2.35h-13.28v17.33h13.28c2.81,0,5.03-.78,6.68-2.35Z"/>
      <path class="cls-1" d="M265.58,299.48c-4.62-2.46-8.18-5.93-10.69-10.41-2.51-4.48-3.77-9.69-3.77-15.63s1.26-11.15,3.77-15.63c2.51-4.48,6.07-7.95,10.69-10.41,4.62-2.46,9.98-3.69,16.08-3.69s11.46,1.23,16.08,3.69c4.62,2.46,8.18,5.93,10.69,10.41,2.51,4.48,3.77,9.69,3.77,15.63s-1.26,11.15-3.77,15.63c-2.51,4.48-6.08,7.95-10.69,10.41-4.62,2.46-9.98,3.69-16.08,3.69s-11.46-1.23-16.08-3.69ZM290.69,289.12c2.62-1.48,4.64-3.58,6.08-6.28,1.43-2.7,2.15-5.83,2.15-9.4s-.72-6.69-2.15-9.4c-1.43-2.7-3.46-4.79-6.08-6.28-2.62-1.48-5.63-2.23-9.03-2.23s-6.4.74-8.99,2.23c-2.59,1.49-4.6,3.58-6.03,6.28-1.43,2.7-2.15,5.83-2.15,9.4s.72,6.7,2.15,9.4c1.43,2.7,3.44,4.79,6.03,6.28,2.59,1.49,5.59,2.23,8.99,2.23s6.41-.74,9.03-2.23Z"/>
      <path class="cls-1" d="M342.24,283.08h-7.69v18.71h-13.28v-56.7h27.62c4.1,0,7.7.8,10.77,2.39,3.08,1.59,5.45,3.85,7.13,6.76,1.67,2.92,2.51,6.26,2.51,10.04,0,4.32-1.12,8.02-3.36,11.1-2.24,3.08-5.41,5.26-9.52,6.56l16.04,19.85h-15.79l-14.42-18.71ZM353.87,258.54c-1.54-1.4-3.71-2.11-6.52-2.11h-12.88v15.96h12.88c2.86,0,5.05-.69,6.56-2.07,1.51-1.38,2.27-3.33,2.27-5.87s-.77-4.51-2.31-5.91Z"/>
      <path class="cls-1" d="M422.03,245.09v11.58h-17.33v45.12h-13.28v-45.12h-17.25v-11.58h47.87Z"/>
      <path class="cls-1" d="M435.27,296.24c-4.51-4.51-6.76-10.81-6.76-18.91v-32.24h13.28v32.24c0,4.32,1.09,7.72,3.28,10.21,2.19,2.48,5.25,3.73,9.19,3.73s6.86-1.24,9.07-3.73c2.21-2.48,3.32-5.89,3.32-10.21v-32.24h13.28v32.24c0,8.1-2.24,14.41-6.72,18.91-4.48,4.51-10.8,6.76-18.95,6.76s-14.49-2.25-18.99-6.76Z"/>
      <path class="cls-1" d="M542.48,268.26v25.27c-2.86,3.08-6.39,5.44-10.57,7.09-4.19,1.65-8.79,2.47-13.81,2.47-5.99,0-11.25-1.21-15.75-3.65-4.51-2.43-7.99-5.89-10.45-10.37-2.46-4.48-3.69-9.69-3.69-15.63s1.3-10.92,3.89-15.43c2.59-4.51,6.22-8.02,10.89-10.53,4.67-2.51,10.03-3.77,16.08-3.77,4.37,0,8.33.76,11.87,2.27,3.54,1.51,6.79,3.81,9.76,6.89l-8.02,7.94c-1.78-1.78-3.88-3.16-6.28-4.13-2.4-.97-4.87-1.46-7.41-1.46-5.45,0-9.76,1.63-12.92,4.9-3.16,3.27-4.74,7.71-4.74,13.32,0,3.62.7,6.8,2.11,9.56,1.4,2.75,3.4,4.89,5.99,6.4,2.59,1.51,5.59,2.27,8.99,2.27,5.35,0,9.61-1.38,12.8-4.13v-8.67h-15.39v-10.61h26.65Z"/>
      <path class="cls-1" d="M595.29,301.79l-4.21-10.21h-27.95l-4.21,10.21h-14.17l25.43-56.7h14.17l25.27,56.7h-14.34ZM577.23,257.81l-9.31,22.36h18.47l-9.15-22.36Z"/>
      <path class="cls-1" d="M615.21,245.09h13.28v44.71h28.51v11.99h-41.8v-56.7Z"/>
    </g>
  </g>
</svg>